<?xml version="1.0" encoding="utf-8"?>
<!DOCTYPE svg PUBLIC "-//W3C//DTD SVG 1.0//EN" "http://www.w3.org/TR/2001/REC-SVG-20010904/DTD/svg10.dtd">
<svg version="1.0" xmlns="http://www.w3.org/2000/svg" width="310px" height="60px" viewBox="0 0 310 60" preserveAspectRatio="xMidYMid meet">
 <g fill="#ffffff">
  <path d="M0 30 l0 -30 155 0 155 0 0 30 0 30 -155 0 -155 0 0 -30z m149.50 19.50 l0 -4 -31 0 -31 0 0 4 0 4 31 0 31 0 0 -4z m-64 -20 l0 -4 -31 0 -31 0 0 4 0 4 31 0 31 0 0 -4z m63.50 -20 l0 -3.50 -62.50 0 -62.50 0 0 3.50 0 3.50 62.50 0 62.50 0 0 -3.50z"/>
 </g>
 <g fill="#d7f9dd">
  <path d="M190 54.95 c0 -0.90 -0.25 -1.05 -1.70 -0.85 -0.95 0.10 -1.60 0 -1.45 -0.25 0.15 -0.25 -0.05 -0.65 -0.40 -0.90 -0.50 -0.30 -0.55 -0.45 -0.05 -0.45 0.30 0 0.60 -0.30 0.60 -0.70 0 -0.55 2.90 -1.60 3.25 -1.20 0.05 0.10 0.25 1.35 0.45 2.80 0.20 1.65 0.15 2.60 -0.20 2.60 -0.25 0 -0.50 -0.45 -0.50 -1.05z"/>
  <path d="M246.25 52.90 c0.10 -1.75 0.15 -3.30 0.20 -3.50 0.10 -0.60 2.55 -0.45 2.55 0.10 0 0.30 -0.45 0.50 -1.05 0.50 -0.60 0 -0.85 0.20 -0.65 0.55 0.15 0.30 0.85 0.40 1.50 0.25 1.10 -0.30 1.20 -0.15 1.20 1.45 0 1.55 -0.15 1.75 -1.30 1.75 -0.85 0 -1.40 0.30 -1.55 1 -0.55 2.05 -1 0.90 -0.90 -2.10z"/>
  <path d="M110.15 55.10 l-24.15 -0.10 0 -5.50 0 -5.50 24.15 -0.10 c13.25 -0.10 27.85 -0.10 32.50 0 l8.35 0.15 0 5.45 0 5.50 -7.70 0 c-4.25 0 -8 0.05 -8.40 0.15 -0.35 0.05 -11.50 0.05 -24.75 -0.05z"/>
  <path d="M260.95 54.65 c-0.10 -2.80 -0.05 -5.25 0.20 -5.45 0.15 -0.20 1.10 -0.05 2.10 0.30 1.60 0.55 1.80 0.75 1.65 2.15 -0.10 1.15 -0.55 1.75 -1.50 2.25 -0.80 0.35 -1.40 0.85 -1.40 1.15 0 0.85 -1 0.45 -1.05 -0.40z m2.95 -3.15 c-0.05 -1.10 -0.30 -1.50 -1 -1.50 -0.65 0 -0.90 0.35 -0.90 1.50 0 1.15 0.25 1.50 0.95 1.50 0.75 0 0.95 -0.35 0.95 -1.50z"/>
  <path d="M164.85 53.70 c0.15 -0.35 0 -0.70 -0.30 -0.70 -0.30 0 -0.55 -0.30 -0.55 -0.65 0 -0.40 -0.45 -1.10 -1 -1.60 -0.95 -0.90 -1 -0.85 -1 0.15 0 1.95 -0.90 1.15 -1.10 -0.90 -0.35 -3.60 0.85 -3.95 2.40 -0.75 0.85 1.85 1.70 2.30 1.70 0.90 0 -1.35 0.35 -0.55 0.70 1.65 0.20 1.60 0.10 2.15 -0.45 2.35 -0.45 0.20 -0.60 0.05 -0.40 -0.45z"/>
  <path d="M168.85 53.70 c0.15 -0.40 0.05 -0.70 -0.25 -0.70 -0.25 0 -0.60 -0.45 -0.75 -1 -0.25 -1.05 1.10 -3 2.10 -3 1 0 2.05 1.35 2.05 2.65 0 1.35 -0.70 2.05 -2.35 2.45 -0.80 0.20 -1 0.10 -0.80 -0.40z m1.70 -1.05 c0 -0.25 0.10 -0.90 0.25 -1.55 0.15 -0.90 0 -1.15 -0.65 -1 -1.20 0.20 -1.55 2.90 -0.45 2.90 0.45 0 0.80 -0.15 0.85 -0.35z"/>
  <path d="M203.85 53.70 c0.15 -0.40 0.55 -0.70 0.95 -0.70 1.05 0 0.85 0.85 -0.25 1.15 -0.70 0.15 -0.90 0.05 -0.70 -0.45z"/>
  <path d="M212.75 54 c0.15 -0.25 0.05 -0.55 -0.25 -0.75 -0.65 -0.40 -0.65 -3.25 0 -3.25 0.30 0 0.50 0.70 0.50 1.50 0 0.85 0.25 1.50 0.55 1.50 0.35 0 0.45 -0.45 0.30 -1.10 -0.20 -0.70 0.05 -1.45 0.80 -2.20 1.50 -1.60 2.05 -1.50 1.20 0.20 -0.40 0.75 -0.85 1.95 -1 2.65 -0.20 0.75 -0.80 1.45 -1.35 1.60 -0.55 0.15 -0.90 0.05 -0.75 -0.15z"/>
  <path d="M220.85 53.70 c0.15 -0.40 0.05 -0.70 -0.25 -0.70 -0.90 0 -1 -1.95 -0.15 -2.90 1.10 -1.25 2.55 -1.75 2.55 -0.90 0 0.40 -0.45 0.80 -1 0.95 -1.20 0.30 -1.45 2.85 -0.25 2.85 1.10 0 0.90 0.85 -0.20 1.15 -0.70 0.15 -0.90 0.05 -0.70 -0.45z"/>
  <path d="M226.85 53.70 c0.15 -0.40 0.55 -0.70 0.95 -0.70 1.05 0 0.85 0.85 -0.25 1.15 -0.70 0.15 -0.90 0.05 -0.70 -0.45z"/>
  <path d="M232.80 53.90 c0.20 -0.30 0.05 -0.70 -0.35 -0.90 -1.45 -0.95 -0.25 -4 1.55 -4 1.65 0 2.70 3.30 1.40 4.35 -0.95 0.75 -2.95 1.15 -2.60 0.55z m1.75 -1.25 c0 -0.25 0.10 -0.90 0.25 -1.55 0.15 -0.90 0 -1.15 -0.65 -1 -1.20 0.20 -1.55 2.90 -0.45 2.90 0.45 0 0.80 -0.15 0.85 -0.35z"/>
  <path d="M258.60 54.10 c-0.35 -0.25 -0.65 -1.25 -0.70 -2.25 -0.05 -1.45 -0.25 -1.85 -1 -1.85 -0.65 0 -0.90 0.35 -0.90 1.25 0 1.45 -0.75 1.65 -1.15 0.30 -0.35 -1.40 1.15 -2.45 2.75 -1.95 1.10 0.40 1.35 0.80 1.50 2.70 0.10 1.20 0.15 2.20 0.15 2.20 0 0 -0.30 -0.20 -0.65 -0.40z"/>
  <path d="M270.85 53.70 c0.15 -0.40 0.55 -0.70 0.95 -0.70 1.05 0 0.85 0.85 -0.25 1.15 -0.70 0.15 -0.90 0.05 -0.70 -0.45z"/>
  <path d="M197.80 53.55 c-0.20 -0.25 0.30 -1.15 1 -2 1.25 -1.50 1.25 -1.55 0.25 -1.55 -0.60 0 -1.05 -0.20 -1.05 -0.50 0 -0.25 0.65 -0.50 1.45 -0.50 1.85 0 2.45 1.35 1.05 2.35 -0.55 0.40 -1 1.15 -1 1.70 0 0.95 -1.20 1.35 -1.70 0.50z"/>
  <path d="M230 51.60 c0 -1.45 0.20 -2.60 0.50 -2.60 0.30 0 0.35 0.95 0.15 2.40 -0.40 3.20 -0.65 3.30 -0.65 0.20z"/>
  <path d="M241 53.30 c0 -0.50 0.35 -0.60 1.15 -0.45 l1.10 0.30 -1.05 -1.20 c-0.60 -0.65 -1.20 -1.50 -1.45 -1.85 -0.55 -1 1.25 0 2.45 1.35 0.75 0.85 0.80 1.15 0.30 1.80 -0.80 0.95 -2.50 1 -2.50 0.05z"/>
  <path d="M275.85 53.35 c-0.20 -0.50 0.10 -0.65 1.05 -0.45 l1.35 0.25 -1.20 -1.35 c-1.60 -1.75 -0.90 -2.35 0.80 -0.70 1.10 1.15 1.20 1.45 0.65 2.10 -0.75 1 -2.30 1.05 -2.65 0.15z"/>
  <path d="M182.95 52.15 c-0.05 -0.50 -0.05 -1.20 0 -1.50 0.05 -0.35 -0.35 -0.65 -0.95 -0.65 -0.75 0 -1 0.30 -1 1.25 0 1.45 -0.75 1.65 -1.15 0.30 -0.35 -1.40 1.15 -2.45 2.80 -1.90 1.05 0.35 1.35 0.75 1.35 1.90 0 1.55 -0.95 2.05 -1.05 0.60z"/>
  <path d="M202.85 52.05 c-0.35 -1.45 0.40 -2.40 1.35 -1.60 0.40 0.35 1.05 0.55 1.40 0.40 0.40 -0.20 0.25 -0.40 -0.45 -0.60 -1.30 -0.40 -1.55 -1.25 -0.35 -1.25 1 0 2.20 1.20 2.20 2.20 0 0.50 -0.45 0.80 -1.20 0.80 -0.70 0 -1.40 0.25 -1.55 0.50 -0.50 0.80 -1.10 0.60 -1.40 -0.45z"/>
  <path d="M216.90 52.15 c-0.25 -1.25 0.15 -3.15 0.65 -3.15 0.25 0 0.45 0.90 0.45 2 0 2 -0.75 2.80 -1.10 1.15z"/>
  <path d="M225.85 52.10 c-0.40 -1.65 0.30 -2.20 1.80 -1.45 1.55 0.70 1.70 1.10 0.50 1.55 -0.50 0.15 -1.15 0.40 -1.45 0.55 -0.30 0.15 -0.70 -0.15 -0.85 -0.65z"/>
  <path d="M269.85 52.05 c-0.35 -1.45 0.40 -2.40 1.35 -1.60 0.40 0.35 1.05 0.55 1.40 0.40 0.40 -0.20 0.25 -0.40 -0.45 -0.60 -1.30 -0.40 -1.55 -1.25 -0.35 -1.25 1 0 2.20 1.20 2.20 2.20 0 0.50 -0.45 0.80 -1.20 0.80 -0.70 0 -1.40 0.25 -1.55 0.50 -0.50 0.80 -1.10 0.60 -1.40 -0.45z"/>
  <path d="M176.90 51.65 c-0.40 -1.80 0.10 -2.65 1.65 -2.65 0.80 0 1.45 0.25 1.45 0.50 0 0.30 -0.45 0.50 -1 0.50 -0.75 0 -1 0.35 -1 1.25 0 1.45 -0.80 1.70 -1.10 0.40z"/>
  <path d="M194.90 51.15 c-0.30 -1.10 0.05 -2.15 0.65 -2.15 0.25 0 0.45 0.70 0.45 1.50 0 1.65 -0.75 2.05 -1.10 0.65z"/>
  <path d="M251.90 51.15 c-0.15 -0.50 -0.15 -1.20 -0.05 -1.50 0.25 -0.75 3.15 -0.90 3.15 -0.15 0 0.30 -0.35 0.50 -0.80 0.50 -0.45 0 -0.90 0.45 -1.05 1 -0.35 1.25 -0.95 1.30 -1.25 0.15z"/>
  <path d="M242.90 50.15 c-1.20 -0.30 -1.15 -1.15 0.10 -1.15 0.55 0 1 0.35 1 0.75 0 0.40 -0.05 0.70 -0.10 0.70 -0.10 -0.05 -0.55 -0.15 -1 -0.30z"/>
  <path d="M277.90 50.15 c-1.20 -0.30 -1.15 -1.15 0.10 -1.15 0.55 0 1 0.35 1 0.75 0 0.40 -0.05 0.70 -0.10 0.70 -0.10 -0.05 -0.55 -0.15 -1 -0.30z"/>
  <path d="M190 48.25 c0 -0.95 0.25 -1.75 0.50 -1.75 0.30 0 0.50 0.80 0.50 1.75 0 0.95 -0.20 1.75 -0.50 1.75 -0.25 0 -0.50 -0.80 -0.50 -1.75z"/>
  <path d="M191.90 49.15 c-0.30 -1.10 0.05 -2.15 0.65 -2.15 0.25 0 0.45 0.70 0.45 1.50 0 1.65 -0.75 2.05 -1.10 0.65z"/>
  <path d="M227 49.50 c0 -0.25 0.45 -0.50 1 -0.50 0.55 0 1 0.25 1 0.50 0 0.30 -0.45 0.50 -1 0.50 -0.55 0 -1 -0.20 -1 -0.50z"/>
  <path d="M190.20 33.70 c0.15 -1.30 0.30 -2.90 0.30 -3.55 l0 -1.20 1.10 1.05 c1.10 1 2.70 1.40 2.15 0.50 -0.15 -0.25 -0.65 -0.50 -1.05 -0.50 -0.40 0 -0.70 -0.20 -0.70 -0.50 0 -0.75 1.45 -0.60 2.30 0.20 1.10 1.10 0.85 2.30 -0.40 2.30 -1.65 0.05 -2.90 1.15 -2.90 2.70 0 0.70 -0.25 1.30 -0.55 1.30 -0.40 0 -0.50 -0.75 -0.25 -2.30z"/>
  <path d="M22 29.50 l0 -5.75 28.60 0.10 c15.75 0.10 30.40 0.15 32.55 0.15 l3.85 0 0 5.50 0 5.50 -3.85 0 c-2.15 0 -16.80 0.05 -32.55 0.15 l-28.60 0.10 0 -5.75z"/>
  <path d="M181.95 34.65 c-0.10 -2.80 -0.05 -5.25 0.20 -5.45 0.15 -0.20 1.10 -0.05 2.10 0.30 1.60 0.55 1.80 0.75 1.65 2.15 -0.10 1.15 -0.55 1.75 -1.50 2.25 -0.80 0.35 -1.40 0.85 -1.40 1.15 0 0.85 -1 0.45 -1.05 -0.40z m2.95 -3.15 c-0.05 -1.10 -0.30 -1.50 -1 -1.50 -0.65 0 -0.90 0.35 -0.90 1.50 0 1.15 0.25 1.50 0.95 1.50 0.75 0 0.95 -0.35 0.95 -1.50z"/>
  <path d="M97.85 33.85 c0.15 -0.25 -0.05 -0.65 -0.40 -0.90 -0.40 -0.25 0.05 -0.30 1.20 -0.10 1.50 0.20 2.05 0.10 2.60 -0.65 0.60 -0.80 0.70 -0.85 0.75 -0.15 0 0.45 -0.30 1.05 -0.60 1.35 -0.85 0.65 -3.95 1.05 -3.55 0.45z"/>
  <path d="M104.80 33.90 c0.20 -0.30 0 -0.70 -0.35 -0.95 -0.45 -0.35 -0.25 -0.35 0.70 -0.15 0.75 0.15 1.35 0.10 1.40 -0.10 0 -0.25 0.10 -0.95 0.25 -1.55 0.25 -1.45 -1.30 -1.60 -1.65 -0.15 -0.30 1.20 -1.15 1.35 -1.15 0.20 0 -0.90 1.15 -2.20 2 -2.20 1.65 0 2.70 3.30 1.40 4.35 -0.95 0.75 -2.95 1.15 -2.60 0.55z"/>
  <path d="M116.85 33.70 c0.15 -0.40 0.55 -0.70 0.95 -0.70 1.05 0 0.85 0.85 -0.25 1.15 -0.70 0.15 -0.90 0.05 -0.70 -0.45z"/>
  <path d="M122.85 33.70 c0.15 -0.40 0.05 -0.70 -0.25 -0.70 -0.90 0 -1 -1.95 -0.15 -2.90 1 -1.15 3.10 -1.80 2.75 -0.85 -0.15 0.35 -0.70 0.75 -1.25 0.90 -1.15 0.30 -1.35 2.85 -0.20 2.85 1.10 0 0.90 0.85 -0.20 1.15 -0.70 0.15 -0.90 0.05 -0.70 -0.45z"/>
  <path d="M127.80 33.95 c0.20 -0.30 0.05 -0.75 -0.30 -0.95 -0.35 -0.20 -0.60 -0.95 -0.60 -1.70 0 -0.70 -0.20 -1.30 -0.45 -1.30 -0.90 0 -0.45 -0.95 0.60 -1.25 1.50 -0.50 2.20 0.40 1.35 1.70 -0.50 0.85 -0.50 1.25 0 2.05 0.75 1.25 0.75 1.35 -0.20 1.70 -0.45 0.20 -0.65 0.10 -0.40 -0.25z"/>
  <path d="M141.85 33.70 c0.15 -0.40 0.05 -0.70 -0.25 -0.70 -0.90 0 -1 -1.95 -0.15 -2.90 1.10 -1.25 2.55 -1.75 2.55 -0.90 0 0.40 -0.45 0.80 -1 0.95 -1.20 0.30 -1.45 2.85 -0.25 2.85 1.10 0 0.90 0.85 -0.20 1.15 -0.70 0.15 -0.90 0.05 -0.70 -0.45z"/>
  <path d="M147.85 33.70 c0.15 -0.40 0.55 -0.70 0.95 -0.70 1.05 0 0.85 0.85 -0.25 1.15 -0.70 0.15 -0.90 0.05 -0.70 -0.45z"/>
  <path d="M153.85 33.70 c0.15 -0.40 0.05 -0.70 -0.25 -0.70 -0.25 0 -0.60 -0.45 -0.75 -1 -0.25 -1.05 1.10 -3 2.10 -3 1 0 2.05 1.35 2.05 2.65 0 1.35 -0.70 2.05 -2.35 2.45 -0.80 0.20 -1 0.10 -0.80 -0.40z m1.70 -1.05 c0 -0.25 0.10 -0.90 0.25 -1.55 0.15 -0.90 0 -1.15 -0.65 -1 -1.20 0.20 -1.55 2.90 -0.45 2.90 0.45 0 0.80 -0.15 0.85 -0.35z"/>
  <path d="M167.85 33.65 c0.15 -0.35 0.55 -0.65 0.95 -0.65 0.40 0 0.70 -0.20 0.70 -0.50 0 -0.70 -0.65 -0.65 -1.40 0.10 -0.45 0.45 -0.75 0.45 -1.20 0 -0.45 -0.45 -0.40 -0.60 0.20 -0.60 0.45 0 0.90 -0.20 1 -0.40 0.10 -0.25 0.75 -0.60 1.55 -0.80 1.25 -0.30 1.35 -0.20 1.35 1.40 0 1.55 -0.15 1.70 -1.70 1.90 -1.20 0.15 -1.60 0 -1.45 -0.45z"/>
  <path d="M179.60 34.10 c-0.35 -0.25 -0.65 -1.25 -0.70 -2.25 -0.05 -1.45 -0.25 -1.85 -1 -1.85 -0.65 0 -0.90 0.35 -0.90 1.25 0 1.45 -0.75 1.65 -1.15 0.30 -0.35 -1.40 1.15 -2.45 2.75 -1.95 1.10 0.40 1.35 0.80 1.50 2.70 0.10 1.20 0.15 2.20 0.15 2.20 0 0 -0.30 -0.20 -0.65 -0.40z"/>
  <path d="M191.85 33.65 c0.30 -0.70 2.15 -0.90 2.15 -0.20 0 0.25 -0.55 0.55 -1.20 0.65 -0.85 0.20 -1.15 0.05 -0.95 -0.45z"/>
  <path d="M211.80 33.90 c0.20 -0.30 0.05 -0.70 -0.35 -0.90 -1.45 -0.95 -0.25 -4 1.55 -4 1.65 0 2.70 3.30 1.40 4.35 -0.95 0.75 -2.95 1.15 -2.60 0.55z m1.75 -1.25 c0 -0.25 0.10 -0.90 0.25 -1.55 0.15 -0.90 0 -1.15 -0.65 -1 -1.20 0.20 -1.55 2.90 -0.45 2.90 0.45 0 0.80 -0.15 0.85 -0.35z"/>
  <path d="M248.85 33.85 c0.15 -0.25 0 -0.65 -0.40 -0.85 -1.55 -1 -0.25 -4 1.80 -4 1.10 0 0.95 0.85 -0.25 1.15 -0.60 0.15 -1 0.70 -1 1.35 0 0.65 0.40 1.20 1 1.35 1.35 0.35 1.25 1 -0.25 1.25 -0.70 0.15 -1.10 0.05 -0.90 -0.25z"/>
  <path d="M267.85 33.75 c0.10 -0.35 -0.15 -0.75 -0.55 -0.90 -0.85 -0.35 -0.75 -1.95 0.10 -2.25 0.35 -0.10 0.60 0.25 0.60 0.85 0 0.55 0.25 1.15 0.50 1.30 0.75 0.45 0.60 1.60 -0.20 1.60 -0.40 0 -0.60 -0.30 -0.45 -0.60z"/>
  <path d="M273.85 33.70 c0.15 -0.40 0.55 -0.70 0.95 -0.70 1.05 0 0.85 0.85 -0.25 1.15 -0.70 0.15 -0.90 0.05 -0.70 -0.45z"/>
  <path d="M279.85 33.85 c0.15 -0.25 -0.05 -0.65 -0.40 -0.90 -0.50 -0.30 -0.55 -0.45 -0.05 -0.45 0.30 0 0.60 -0.35 0.60 -0.75 0 -0.40 0.30 -0.75 0.70 -0.75 0.40 0 1.05 -0.15 1.50 -0.30 0.65 -0.25 0.80 0.05 0.80 1.45 0 1.60 -0.15 1.75 -1.70 1.95 -0.95 0.10 -1.60 0 -1.45 -0.25z"/>
  <path d="M162 33.30 c0 -0.50 0.35 -0.60 1.15 -0.45 l1.10 0.30 -1.05 -1.20 c-2.40 -2.75 -2.10 -3.20 0.55 -0.90 1.65 1.45 1.70 1.60 0.90 2.25 -1.20 0.90 -2.65 0.90 -2.65 0z"/>
  <path d="M196.85 33.35 c-0.20 -0.50 0.10 -0.65 1.05 -0.45 l1.35 0.25 -1.20 -1.35 c-1.60 -1.75 -0.90 -2.35 0.80 -0.70 1.10 1.15 1.20 1.45 0.65 2.10 -0.75 1 -2.30 1.05 -2.65 0.15z"/>
  <path d="M235 33.30 c0 -1 1.05 -3.30 1.55 -3.30 0.80 0 0.95 0.95 0.20 1.70 -0.40 0.40 -0.70 1 -0.65 1.35 0.10 0.30 -0.15 0.70 -0.45 0.80 -0.35 0.15 -0.65 -0.10 -0.65 -0.55z"/>
  <path d="M239 33.05 c0 -0.55 0.25 -1.15 0.50 -1.30 0.30 -0.20 0.50 -0.60 0.45 -0.90 -0.15 -1.20 0.05 -1.85 0.55 -1.85 0.60 0 0.70 2.65 0.15 3.20 -0.25 0.20 -0.40 0.65 -0.40 0.95 0 0.25 -0.30 0.60 -0.60 0.75 -0.40 0.10 -0.65 -0.25 -0.65 -0.85z"/>
  <path d="M241.90 33.70 c-0.40 -0.40 0.15 -2.20 0.65 -2.20 0.25 0 0.45 0.55 0.45 1.25 0 1.20 -0.50 1.60 -1.10 0.95z"/>
  <path d="M262 33.30 c0 -0.50 0.35 -0.60 1.15 -0.45 l1.10 0.30 -1.05 -1.20 c-2.40 -2.75 -2.10 -3.20 0.55 -0.90 1.65 1.45 1.70 1.60 0.90 2.25 -1.20 0.90 -2.65 0.90 -2.65 0z"/>
  <path d="M269.90 33.70 c-0.40 -0.40 0.15 -2.20 0.65 -2.20 0.25 0 0.45 0.55 0.45 1.25 0 1.20 -0.50 1.60 -1.10 0.95z"/>
  <path d="M294.50 33.50 c0 -0.25 0.40 -0.50 0.85 -0.50 0.70 0 0.60 -0.20 -0.35 -1.25 -1.60 -1.70 -0.80 -2.30 0.85 -0.65 1.10 1.15 1.20 1.45 0.65 2.10 -0.70 0.90 -2 1.05 -2 0.30z"/>
  <path d="M115.85 32.05 c-0.35 -1.45 0.40 -2.40 1.35 -1.60 0.40 0.35 1.05 0.55 1.40 0.40 0.40 -0.20 0.25 -0.40 -0.45 -0.60 -1.30 -0.40 -1.55 -1.25 -0.35 -1.25 1 0 2.20 1.20 2.20 2.20 0 0.50 -0.45 0.80 -1.20 0.80 -0.70 0 -1.40 0.25 -1.55 0.50 -0.50 0.80 -1.10 0.60 -1.40 -0.45z"/>
  <path d="M137.90 32.15 c-0.30 -1.35 0.15 -3.20 0.65 -2.85 0.60 0.35 0.60 3.70 0 3.70 -0.25 0 -0.55 -0.40 -0.65 -0.85z"/>
  <path d="M146.85 32.05 c-0.35 -1.45 0.40 -2.40 1.35 -1.60 0.40 0.35 1.05 0.55 1.40 0.40 0.40 -0.20 0.25 -0.40 -0.45 -0.60 -1.30 -0.40 -1.55 -1.25 -0.35 -1.25 1 0 2.20 1.20 2.20 2.20 0 0.50 -0.45 0.80 -1.20 0.80 -0.70 0 -1.40 0.25 -1.55 0.50 -0.50 0.80 -1.10 0.60 -1.40 -0.45z"/>
  <path d="M222.95 32.15 c-0.05 -0.50 -0.05 -1.20 0 -1.50 0.05 -0.35 -0.35 -0.65 -0.95 -0.65 -0.75 0 -1 0.30 -1 1.25 0 1.45 -0.75 1.65 -1.15 0.30 -0.35 -1.40 1.15 -2.45 2.80 -1.90 1.05 0.35 1.35 0.75 1.35 1.90 0 1.55 -0.95 2.05 -1.05 0.60z"/>
  <path d="M246 31.10 c0 -1.15 0.20 -2.10 0.45 -2.10 0.30 0 0.35 0.85 0.20 1.90 -0.40 2.55 -0.65 2.65 -0.65 0.20z"/>
  <path d="M255.95 32.15 c-0.05 -0.50 0 -1.20 0.05 -1.60 0.05 -0.45 -0.25 -0.60 -0.90 -0.45 -1.60 0.45 -2.35 -0.45 -2.15 -2.45 0.10 -1.10 1.05 -0.70 1.05 0.40 0 0.65 0.50 1.15 1.50 1.50 1.20 0.45 1.50 0.85 1.50 2 0 1.55 -0.95 2.05 -1.05 0.60z"/>
  <path d="M272.80 31.90 c-0.35 -1.45 0.40 -2.25 1.40 -1.45 0.45 0.35 1.05 0.55 1.40 0.40 0.40 -0.20 0.25 -0.40 -0.45 -0.60 -1.30 -0.40 -1.55 -1.25 -0.35 -1.25 1 0 2.20 1.20 2.20 2.20 0 0.50 -0.45 0.80 -1.20 0.80 -0.70 0 -1.40 0.25 -1.55 0.50 -0.50 0.85 -1.10 0.55 -1.45 -0.60z"/>
  <path d="M290.95 32.15 c-0.05 -0.50 -0.05 -1.20 0 -1.50 0.05 -0.35 -0.35 -0.65 -0.95 -0.65 -0.75 0 -1 0.30 -1 1.25 0 1.45 -0.75 1.65 -1.15 0.30 -0.35 -1.40 1.15 -2.45 2.80 -1.90 1.05 0.35 1.35 0.75 1.35 1.90 0 1.55 -0.95 2.05 -1.05 0.60z"/>
  <path d="M133 30.90 c0 -0.50 0.25 -0.90 0.50 -0.90 0.30 0 0.50 -0.35 0.50 -0.75 0 -0.40 0.25 -0.75 0.50 -0.75 0.30 0 0.50 0.35 0.50 0.75 0 1 0.80 0.95 1.20 -0.05 0.20 -0.45 0.45 -0.70 0.60 -0.55 0.20 0.15 0 0.95 -0.35 1.80 -0.50 1.15 -0.95 1.45 -2.05 1.45 -1 -0.05 -1.40 -0.30 -1.40 -1z"/>
  <path d="M172.90 31.15 c-0.15 -0.50 -0.15 -1.20 -0.05 -1.50 0.25 -0.75 3.15 -0.90 3.15 -0.15 0 0.30 -0.35 0.50 -0.80 0.50 -0.45 0 -0.90 0.45 -1.05 1 -0.35 1.25 -0.95 1.30 -1.25 0.15z"/>
  <path d="M216.90 31.15 c-0.15 -0.50 -0.15 -1.20 -0.05 -1.50 0.25 -0.75 3.15 -0.90 3.15 -0.15 0 0.30 -0.45 0.50 -1 0.50 -0.65 0 -1 0.35 -1 1 0 1.25 -0.80 1.30 -1.10 0.15z"/>
  <path d="M234 30.75 c0 -0.70 0.25 -1.25 0.50 -1.25 0.30 0 0.50 0.55 0.50 1.25 0 0.70 -0.20 1.25 -0.50 1.25 -0.25 0 -0.50 -0.55 -0.50 -1.25z"/>
  <path d="M237.85 31.20 c0.15 -0.45 0 -1 -0.40 -1.20 -0.35 -0.25 -0.50 -0.60 -0.30 -0.80 0.50 -0.55 1.85 0.80 1.85 1.85 0 0.55 -0.35 0.95 -0.75 0.95 -0.45 0 -0.60 -0.30 -0.40 -0.80z"/>
  <path d="M284.90 31.15 c-0.15 -0.50 -0.15 -1.20 -0.05 -1.50 0.25 -0.75 3.15 -0.90 3.15 -0.15 0 0.30 -0.35 0.50 -0.80 0.50 -0.45 0 -0.90 0.45 -1.05 1 -0.35 1.25 -0.95 1.30 -1.25 0.15z"/>
  <path d="M163.90 30.15 c-1.20 -0.30 -1.15 -1.15 0.10 -1.15 0.55 0 1 0.35 1 0.75 0 0.40 -0.05 0.70 -0.10 0.70 -0.10 -0.05 -0.55 -0.15 -1 -0.30z"/>
  <path d="M198.90 30.15 c-1.20 -0.30 -1.15 -1.15 0.10 -1.15 0.55 0 1 0.35 1 0.75 0 0.40 -0.05 0.70 -0.10 0.70 -0.10 -0.05 -0.55 -0.15 -1 -0.30z"/>
  <path d="M209 29.75 c0 -0.40 0.35 -0.75 0.80 -0.75 0.70 0 0.70 0.15 0.20 0.75 -0.35 0.40 -0.70 0.75 -0.80 0.75 -0.10 0 -0.20 -0.35 -0.20 -0.75z"/>
  <path d="M242 29.75 c0 -0.40 0.25 -0.75 0.50 -0.75 0.30 0 0.50 0.35 0.50 0.75 0 0.40 -0.20 0.75 -0.50 0.75 -0.25 0 -0.50 -0.35 -0.50 -0.75z"/>
  <path d="M244.30 29.70 c-1 -0.95 -1 -1.25 -0.10 -0.90 0.45 0.20 0.80 -0.15 0.95 -0.90 0.15 -0.75 0.25 -0.50 0.30 0.75 0.05 2.10 -0.05 2.20 -1.15 1.05z"/>
  <path d="M263.90 30.15 c-1.20 -0.30 -1.15 -1.15 0.10 -1.15 0.55 0 1 0.35 1 0.75 0 0.40 -0.05 0.70 -0.10 0.70 -0.10 -0.05 -0.55 -0.15 -1 -0.30z"/>
  <path d="M271 29.75 c0 -0.40 0.35 -0.75 0.80 -0.75 0.70 0 0.70 0.15 0.20 0.75 -0.35 0.40 -0.70 0.75 -0.80 0.75 -0.10 0 -0.20 -0.35 -0.20 -0.75z"/>
  <path d="M295.90 30.15 c-1.20 -0.30 -1.15 -1.15 0.10 -1.15 0.55 0 1 0.35 1 0.75 0 0.40 -0.05 0.70 -0.10 0.70 -0.10 -0.05 -0.55 -0.15 -1 -0.30z"/>
  <path d="M97 29.20 c0 -0.85 1.15 -2.20 1.95 -2.20 0.80 0 3.05 1.10 3.05 1.55 0 0.20 -0.35 0.45 -0.70 0.60 -0.50 0.20 -0.65 0.05 -0.45 -0.45 0.20 -0.50 -0.10 -0.70 -1.10 -0.70 -0.90 0 -1.45 0.30 -1.60 1 -0.30 1.20 -1.15 1.35 -1.15 0.20z"/>
  <path d="M168 29.50 c0 -0.25 0.45 -0.50 1 -0.50 0.55 0 1 0.25 1 0.50 0 0.30 -0.45 0.50 -1 0.50 -0.55 0 -1 -0.20 -1 -0.50z"/>
  <path d="M229.85 28.65 c-0.35 -1.75 0.05 -2.15 1.80 -1.80 1.45 0.30 1.90 1.15 0.55 1.15 -0.45 0 -0.90 0.45 -1.05 1 -0.40 1.40 -1 1.25 -1.30 -0.35z"/>
  <path d="M280 29.50 c0 -0.25 0.45 -0.50 1 -0.50 0.55 0 1 0.25 1 0.50 0 0.30 -0.45 0.50 -1 0.50 -0.55 0 -1 -0.20 -1 -0.50z"/>
  <path d="M205.90 27.50 c0.50 -0.60 0.90 -0.80 1.05 -0.45 0.10 0.30 -0.15 0.75 -0.50 1 -1.20 0.75 -1.45 0.50 -0.55 -0.55z"/>
  <path d="M301.50 16 c-0.60 -0.35 -0.60 -0.60 -0.10 -1.10 0.30 -0.30 0.60 -1.80 0.60 -3.25 0 -2.60 0 -2.65 1.50 -2.65 1.50 0 1.50 0 1.50 2.95 0 2.55 -0.15 3.10 -1.10 3.75 -1.30 0.95 -1.40 0.95 -2.40 0.30z m2.25 -4.65 c0.05 -0.80 -0.25 -1.35 -0.60 -1.35 -0.40 0 -0.65 0.60 -0.65 1.55 0 1 0.20 1.45 0.65 1.35 0.30 -0.15 0.60 -0.85 0.60 -1.55z"/>
  <path d="M190.20 13.70 c0.15 -1.30 0.35 -3.05 0.35 -3.90 0.05 -0.85 0.15 -1.15 0.30 -0.65 0.25 0.90 1.15 1.20 1.15 0.35 0 -0.75 1.45 -0.60 2.30 0.20 0.85 0.90 0.90 3 0.10 3.65 -0.35 0.30 -1.15 0.65 -1.75 0.75 -0.80 0.20 -1 0.10 -0.80 -0.40 0.15 -0.40 0 -0.70 -0.30 -0.70 -0.30 0 -0.55 0.70 -0.55 1.50 0 0.85 -0.25 1.50 -0.55 1.50 -0.40 0 -0.50 -0.75 -0.25 -2.30z m3.35 -1.05 c0 -0.25 0.10 -0.90 0.25 -1.50 0.15 -0.80 -0.05 -1.15 -0.55 -1.15 -0.90 0 -1.50 1.20 -1.05 2.25 0.30 0.75 1.25 1.05 1.35 0.40z"/>
  <path d="M246.20 14.15 c0.15 -1.05 0.30 -2.80 0.35 -3.90 0.05 -1.10 0.15 -1.60 0.30 -1.10 0.25 0.85 1.15 1.20 1.15 0.40 0 -0.75 1.75 -0.95 2.40 -0.25 0.80 0.85 0.75 3.10 0 3.90 -1 0.95 -2.90 1.35 -2.55 0.50 0.15 -0.40 0 -0.70 -0.30 -0.70 -0.30 0 -0.55 0.70 -0.55 1.50 0 0.85 -0.25 1.50 -0.55 1.50 -0.40 0 -0.50 -0.65 -0.25 -1.85z m3.70 -2.65 c-0.05 -1.60 -1.20 -2.10 -1.70 -0.75 -0.40 1.05 0.15 2.25 1 2.25 0.50 0 0.70 -0.50 0.70 -1.50z"/>
  <path d="M168.85 13.65 c0.15 -0.35 0.55 -0.65 0.95 -0.65 0.40 0 0.70 -0.20 0.70 -0.50 0 -0.70 -0.65 -0.65 -1.40 0.10 -0.45 0.45 -0.75 0.45 -1.20 0 -0.45 -0.45 -0.40 -0.60 0.25 -0.60 0.45 0 0.85 -0.20 0.85 -0.50 0 -0.25 0.45 -0.50 1 -0.50 0.55 0 1 -0.20 1 -0.50 0 -0.25 0.25 -0.50 0.50 -0.50 0.30 0 0.50 0.90 0.50 1.95 0 1.85 -0.10 1.95 -1.70 2.15 -1.20 0.15 -1.60 0 -1.45 -0.45z"/>
  <path d="M174.80 13.85 c0.15 -0.40 -0.10 -0.85 -0.50 -1 -0.50 -0.20 -0.65 -0.75 -0.50 -1.55 0.10 -0.75 0 -1.30 -0.25 -1.30 -0.25 0 -0.55 -0.35 -0.70 -0.70 -0.20 -0.50 -0.05 -0.65 0.45 -0.45 0.45 0.15 0.70 -0.10 0.70 -0.80 0 -1.05 0.05 -1.05 1.20 0.30 1 1.15 1.10 1.45 0.50 1.80 -0.95 0.55 -0.90 2.20 0.15 2.75 0.70 0.45 0.70 0.55 -0.25 1.05 -0.90 0.45 -1.05 0.45 -0.80 -0.10z"/>
  <path d="M186.85 13.65 c0.15 -0.35 0.05 -0.65 -0.25 -0.65 -0.25 0 -0.60 -0.45 -0.75 -1 -0.30 -1.15 1.15 -3 2.35 -3 1.15 0 1 0.85 -0.20 1.15 -0.60 0.15 -1 0.70 -1 1.35 0 0.65 0.40 1.20 1 1.35 1.35 0.35 1.25 1 -0.20 1.25 -0.85 0.20 -1.15 0.05 -0.95 -0.45z"/>
  <path d="M203.85 13.70 c0.15 -0.40 0.55 -0.70 0.95 -0.70 1.05 0 0.85 0.85 -0.25 1.15 -0.70 0.15 -0.90 0.05 -0.70 -0.45z"/>
  <path d="M209.85 13.70 c0.15 -0.40 0.05 -0.70 -0.25 -0.70 -0.90 0 -1 -1.95 -0.15 -2.90 1 -1.15 3.10 -1.80 2.75 -0.85 -0.15 0.35 -0.70 0.75 -1.25 0.90 -1.15 0.30 -1.35 2.85 -0.20 2.85 1.10 0 0.90 0.85 -0.20 1.15 -0.70 0.15 -0.90 0.05 -0.70 -0.45z"/>
  <path d="M214.85 13.65 c0.15 -0.35 0.05 -0.65 -0.25 -0.65 -0.25 0 -0.60 -0.45 -0.75 -1 -0.40 -1.50 0.80 -1.20 1.55 0.35 0.75 1.70 0.75 2 -0.10 2 -0.40 0 -0.60 -0.30 -0.45 -0.70z"/>
  <path d="M220.85 13.70 c0.15 -0.40 0.05 -0.70 -0.25 -0.70 -0.25 0 -0.60 -0.45 -0.75 -1 -0.25 -1.05 1.10 -3 2.10 -3 1 0 2.05 1.35 2.05 2.65 0 1.35 -0.70 2.05 -2.35 2.45 -0.80 0.20 -1 0.10 -0.80 -0.40z m1.70 -1.05 c0 -0.25 0.10 -0.90 0.25 -1.55 0.15 -0.90 0 -1.15 -0.65 -1 -1.20 0.20 -1.55 2.90 -0.45 2.90 0.45 0 0.80 -0.15 0.85 -0.35z"/>
  <path d="M235.85 13.65 c0.15 -0.35 0.55 -0.65 0.95 -0.65 0.40 0 0.70 -0.20 0.70 -0.50 0 -0.65 -0.65 -0.65 -1.35 0.05 -0.60 0.60 -1.65 0.20 -1.65 -0.60 0 -0.30 0.25 -0.35 0.55 -0.15 0.30 0.15 0.70 0.10 0.90 -0.15 0.15 -0.30 0.90 -0.65 1.70 -0.85 1.25 -0.30 1.35 -0.20 1.35 1.40 0 1.55 -0.15 1.70 -1.70 1.90 -1.20 0.15 -1.60 0 -1.45 -0.45z"/>
  <path d="M265.80 13.90 c0.20 -0.30 0.05 -0.70 -0.35 -0.90 -1.45 -0.95 -0.25 -4 1.55 -4 1.65 0 2.65 2.95 1.40 4.20 -0.85 0.80 -3 1.40 -2.60 0.70z m1.75 -1.25 c0 -0.25 0.10 -0.90 0.25 -1.55 0.15 -0.90 0 -1.15 -0.65 -1 -1.20 0.20 -1.55 2.90 -0.45 2.90 0.45 0 0.80 -0.15 0.85 -0.35z"/>
  <path d="M271.85 13.70 c0.15 -0.40 0.05 -0.70 -0.25 -0.70 -0.25 0 -0.60 -0.45 -0.75 -1 -0.30 -1.15 1.15 -3 2.35 -3 1.15 0 1 0.85 -0.20 1.15 -1.20 0.30 -1.45 2.85 -0.25 2.85 1.10 0 0.90 0.85 -0.20 1.15 -0.70 0.15 -0.90 0.05 -0.70 -0.45z"/>
  <path d="M276.85 13.70 c0.15 -0.40 0.55 -0.70 0.95 -0.70 1.05 0 0.85 0.85 -0.25 1.15 -0.70 0.15 -0.90 0.05 -0.70 -0.45z"/>
  <path d="M177.50 13.25 c-0.65 -0.80 -0.20 -1.45 1.90 -2.60 1.55 -0.90 1.60 -0.85 1.60 1.35 0 1.85 -0.10 2 -1.45 2 -0.80 0 -1.70 -0.35 -2.05 -0.75z"/>
  <path d="M216.90 13.70 c-0.40 -0.40 0.15 -2.20 0.65 -2.20 0.25 0 0.45 0.55 0.45 1.25 0 1.20 -0.50 1.60 -1.10 0.95z"/>
  <path d="M257.50 13.50 c0 -0.25 0.30 -0.50 0.70 -0.50 0.50 0 0.70 -0.50 0.70 -1.50 -0.05 -1.70 -1.35 -2.10 -1.75 -0.50 -0.40 1.50 -1.15 1.20 -1.15 -0.50 0 -1.30 0.20 -1.50 1.30 -1.50 0.70 0 1.60 0.30 2 0.70 0.85 0.90 0.90 2.90 0.10 3.70 -0.75 0.75 -1.90 0.80 -1.90 0.10z"/>
  <path d="M281.85 13.35 c-0.20 -0.50 0.10 -0.65 1.05 -0.45 l1.35 0.25 -1.20 -1.35 c-1.60 -1.75 -0.90 -2.35 0.80 -0.70 1.10 1.15 1.20 1.45 0.65 2.10 -0.75 1 -2.30 1.05 -2.65 0.15z"/>
  <path d="M287 13.30 c0 -0.50 0.35 -0.60 1.15 -0.45 1.05 0.25 1 0.20 -0.35 -1.25 -1.95 -2.10 -1.35 -2.60 0.75 -0.70 1.45 1.30 1.55 1.60 1 2.30 -0.85 1 -2.55 1.05 -2.55 0.10z"/>
  <path d="M202.85 12.05 c-0.35 -1.45 0.40 -2.40 1.35 -1.60 0.40 0.35 1.05 0.55 1.40 0.40 0.40 -0.20 0.25 -0.40 -0.45 -0.60 -1.30 -0.40 -1.55 -1.25 -0.35 -1.25 1 0 2.20 1.20 2.20 2.20 0 0.50 -0.45 0.80 -1.20 0.80 -0.70 0 -1.40 0.25 -1.55 0.50 -0.50 0.80 -1.10 0.60 -1.40 -0.45z"/>
  <path d="M228.95 12.15 c-0.05 -0.50 -0.05 -1.20 0 -1.50 0.05 -0.35 -0.35 -0.65 -0.95 -0.65 -0.65 0 -1 0.35 -1 1 0 1.25 -0.80 1.30 -1.15 0.05 -0.40 -1.70 0.35 -2.25 2.15 -1.60 2.05 0.70 2 0.70 2 -0.20 0 -0.40 0.25 -0.75 0.55 -0.75 0.40 0 0.45 0.55 0.25 1.55 -0.15 0.85 -0.30 1.90 -0.30 2.25 0 1.05 -1.50 0.85 -1.55 -0.15z"/>
  <path d="M243.95 12.15 c-0.05 -0.50 -0.05 -1.20 0 -1.50 0.05 -0.35 -0.35 -0.65 -0.95 -0.65 -0.65 0 -1 0.35 -1 1 0 1.25 -0.80 1.30 -1.15 0.05 -0.45 -1.70 0.30 -2.25 2.35 -1.55 1.50 0.50 1.80 0.80 1.80 2.05 0 1.55 -0.95 2.05 -1.05 0.60z"/>
  <path d="M275.85 12.05 c-0.35 -1.45 0.40 -2.40 1.35 -1.60 0.40 0.35 1.05 0.55 1.40 0.40 0.40 -0.20 0.25 -0.40 -0.45 -0.60 -1.30 -0.40 -1.55 -1.25 -0.35 -1.25 1 0 2.20 1.20 2.20 2.20 0 0.50 -0.45 0.80 -1.20 0.80 -0.70 0 -1.40 0.25 -1.55 0.50 -0.50 0.80 -1.10 0.60 -1.40 -0.45z"/>
  <path d="M297.95 12.15 c-0.05 -0.50 -0.05 -1.20 0 -1.50 0.15 -1.05 -1.50 -0.70 -1.80 0.35 -0.35 1.25 -0.95 1.30 -1.25 0.15 -0.40 -1.45 0.10 -2.15 1.45 -2.15 1.60 0 2.65 1.10 2.65 2.70 0 1.45 -0.95 1.80 -1.05 0.45z"/>
  <path d="M291.90 11.15 c-0.30 -1.10 0.05 -2.15 0.65 -2.15 0.25 0 0.45 0.70 0.45 1.50 0 1.65 -0.75 2.05 -1.10 0.65z"/>
  <path d="M164.95 10.15 c-0.05 -0.50 -0.05 -1.20 0 -1.50 0.15 -1.15 -2.50 -0.75 -2.80 0.35 -0.35 1.25 -0.95 1.30 -1.25 0.15 -0.55 -2.10 1.15 -2.80 3.85 -1.55 0.90 0.40 1.25 0.95 1.25 2 0 1.50 -0.95 2 -1.05 0.55z"/>
  <path d="M283.90 10.15 c-1.20 -0.30 -1.15 -1.15 0.10 -1.15 0.55 0 1 0.35 1 0.75 0 0.40 -0.05 0.70 -0.10 0.70 -0.10 -0.05 -0.55 -0.15 -1 -0.30z"/>
  <path d="M288.90 10.15 c-1.20 -0.30 -1.15 -1.15 0.10 -1.15 0.55 0 1 0.35 1 0.75 0 0.40 -0.05 0.70 -0.10 0.70 -0.10 -0.05 -0.55 -0.15 -1 -0.30z"/>
  <path d="M178 9.50 c0 -0.25 0.45 -0.50 1 -0.50 0.55 0 1 0.25 1 0.50 0 0.30 -0.45 0.50 -1 0.50 -0.55 0 -1 -0.20 -1 -0.50z"/>
  <path d="M236 9.50 c0 -0.25 0.45 -0.50 1 -0.50 0.55 0 1 0.25 1 0.50 0 0.30 -0.45 0.50 -1 0.50 -0.55 0 -1 -0.20 -1 -0.50z"/>
  <path d="M76.50 5 c0 -0.25 0.35 -0.50 0.75 -0.50 0.45 0 0.75 -0.45 0.75 -1.25 0 -0.70 0.25 -1.25 0.55 -1.25 0.35 0 0.45 0.50 0.35 1.25 -0.20 0.85 -0.05 1.25 0.40 1.25 0.40 0 0.70 0.25 0.70 0.50 0 0.30 -0.80 0.50 -1.75 0.50 -0.95 0 -1.75 -0.20 -1.75 -0.50z"/>
  <path d="M132.50 5 c0 -0.25 0.35 -0.50 0.75 -0.50 0.45 0 0.75 -0.45 0.75 -1.25 0 -0.70 0.25 -1.25 0.55 -1.25 0.35 0 0.45 0.50 0.35 1.25 -0.20 0.85 -0.05 1.25 0.40 1.25 0.40 0 0.70 0.25 0.70 0.50 0 0.30 -0.80 0.50 -1.75 0.50 -0.95 0 -1.75 -0.20 -1.75 -0.50z"/>
 </g>
 <g fill="#007209">
  <path d="M190 54.75 c0 -0.40 -0.35 -0.75 -0.80 -0.75 -0.60 0 -0.75 -0.30 -0.55 -1.05 0.25 -0.85 0.10 -1 -0.70 -0.80 -0.60 0.15 -0.95 0 -0.95 -0.45 0 -0.40 0.45 -0.70 1 -0.70 1.35 0 1.25 -0.90 -0.10 -1.15 -0.65 -0.10 -0.30 -0.20 0.75 -0.20 1.85 0 1.85 0 1.85 2.15 0 1.15 0.15 2.45 0.30 2.90 0.15 0.45 0.05 0.80 -0.25 0.80 -0.30 0 -0.55 -0.35 -0.55 -0.75z"/>
  <path d="M230 54.75 c0 -0.40 -0.35 -0.75 -0.75 -0.75 -0.40 0 -0.75 -0.20 -0.75 -0.50 0 -0.25 0.35 -0.50 0.75 -0.50 0.40 0 0.75 -0.25 0.75 -0.55 0 -0.35 -0.60 -0.50 -1.50 -0.35 -1 0.15 -1.50 0 -1.50 -0.40 0 -0.35 -0.30 -0.70 -0.60 -0.80 -0.45 -0.15 -0.40 -0.45 0.20 -1.05 0.90 -0.95 2.40 -1.15 2.40 -0.35 0 0.30 -0.45 0.50 -1 0.50 -0.55 0 -1 0.25 -1 0.50 0 0.75 1.50 0.60 2.35 -0.25 0.40 -0.45 0.80 -0.75 0.90 -0.65 0.40 0.50 0.60 5.90 0.20 5.90 -0.25 0 -0.45 -0.35 -0.45 -0.75z"/>
  <path d="M241.90 53.10 l1.15 -0.35 -1.05 -1.15 c-1.55 -1.65 -0.85 -1.95 0.85 -0.40 1.20 1.10 1.30 1.40 0.65 1.80 -0.40 0.25 -1.20 0.45 -1.75 0.45 -0.85 -0.05 -0.85 -0.10 0.15 -0.35z"/>
  <path d="M276.90 53.10 l1.15 -0.35 -1.05 -1.15 c-1.55 -1.65 -0.85 -1.95 0.85 -0.40 1.20 1.10 1.30 1.40 0.65 1.80 -0.40 0.25 -1.20 0.45 -1.75 0.45 -0.85 -0.05 -0.85 -0.10 0.15 -0.35z"/>
  <path d="M248.80 52.40 c0.25 -0.40 0 -0.45 -0.70 -0.30 -0.75 0.20 -1.10 0.10 -1.10 -0.40 0 -0.40 0.45 -0.70 1 -0.70 0.55 0 1 -0.20 1 -0.50 0 -0.25 -0.50 -0.50 -1.10 -0.50 -0.60 0 -0.95 -0.15 -0.75 -0.30 0.15 -0.20 0.90 -0.20 1.60 0 1 0.25 1.25 0.65 1.25 1.80 0 1.05 -0.25 1.50 -0.80 1.50 -0.45 0 -0.60 -0.25 -0.40 -0.60z"/>
  <path d="M204 51.65 c0 -0.35 0.45 -0.65 1 -0.65 0.55 0 1 -0.20 1 -0.50 0 -0.25 -0.50 -0.50 -1.10 -0.50 -0.60 0 -0.95 -0.15 -0.75 -0.30 0.15 -0.20 0.90 -0.20 1.60 0 1.85 0.45 1.70 2.10 -0.25 2.40 -1 0.15 -1.50 0 -1.50 -0.45z"/>
  <path d="M161 48.50 c0 -1.70 0.25 -1.85 1.30 -0.80 1.05 1.05 0.85 2.30 -0.30 2.30 -0.80 0 -1 -0.35 -1 -1.50z"/>
  <path d="M246.10 34.65 c-0.05 -0.80 -0.35 -1.45 -0.60 -1.55 -0.75 -0.25 -0.60 -2.10 0.20 -2.10 0.65 0 1.30 2.05 1.30 4.05 0 1.50 -0.75 1.10 -0.90 -0.40z"/>
  <path d="M99.50 33.50 c0 -0.25 0.30 -0.50 0.70 -0.50 0.40 0 0.80 -0.30 0.95 -0.60 0.10 -0.35 0.40 -0.50 0.60 -0.30 0.45 0.40 -0.90 1.90 -1.70 1.90 -0.30 0 -0.55 -0.20 -0.55 -0.50z"/>
  <path d="M162.90 33.10 l1.15 -0.35 -1.05 -1.15 c-1.55 -1.65 -0.85 -1.95 0.85 -0.40 1.20 1.10 1.30 1.40 0.65 1.80 -0.40 0.25 -1.20 0.45 -1.75 0.45 -0.85 -0.05 -0.85 -0.10 0.15 -0.35z"/>
  <path d="M197.90 33.10 l1.15 -0.35 -1.05 -1.15 c-1.55 -1.65 -0.85 -1.95 0.85 -0.40 1.20 1.10 1.30 1.40 0.65 1.80 -0.40 0.25 -1.20 0.45 -1.75 0.45 -0.85 -0.05 -0.85 -0.10 0.15 -0.35z"/>
  <path d="M235 33.10 c0 -0.75 1.25 -3.10 1.65 -3.10 0.20 0 0.35 0.45 0.35 1 0 0.55 -0.20 1 -0.50 1 -0.25 0 -0.50 0.35 -0.50 0.75 0 0.40 -0.20 0.75 -0.50 0.75 -0.25 0 -0.50 -0.20 -0.50 -0.40z"/>
  <path d="M262.90 33.10 l1.15 -0.35 -1.05 -1.15 c-1.55 -1.65 -0.85 -1.95 0.85 -0.40 1.20 1.10 1.30 1.40 0.65 1.80 -0.40 0.25 -1.20 0.45 -1.75 0.45 -0.85 -0.05 -0.85 -0.10 0.15 -0.35z"/>
  <path d="M294.90 33.10 l1.15 -0.35 -1.05 -1.15 c-1.55 -1.65 -0.85 -1.95 0.85 -0.40 1.20 1.10 1.30 1.40 0.65 1.80 -0.40 0.25 -1.20 0.45 -1.75 0.45 -0.85 -0.05 -0.85 -0.10 0.15 -0.35z"/>
  <path d="M169.80 32.40 c0.25 -0.40 0 -0.45 -0.70 -0.30 -0.75 0.20 -1.10 0.10 -1.10 -0.40 0 -0.40 0.45 -0.70 1 -0.70 0.55 0 1 -0.20 1 -0.50 0 -0.25 -0.50 -0.50 -1.10 -0.50 -0.60 0 -0.95 -0.15 -0.75 -0.30 0.15 -0.20 0.90 -0.20 1.60 0 1 0.25 1.25 0.65 1.25 1.80 0 1.05 -0.25 1.50 -0.80 1.50 -0.45 0 -0.60 -0.25 -0.40 -0.60z"/>
  <path d="M281.80 32.40 c0.25 -0.40 0 -0.45 -0.70 -0.30 -0.75 0.20 -1.10 0.10 -1.10 -0.40 0 -0.40 0.45 -0.70 1 -0.70 0.55 0 1 -0.20 1 -0.50 0 -0.25 -0.50 -0.50 -1.10 -0.50 -0.60 0 -0.95 -0.15 -0.75 -0.30 0.15 -0.20 0.90 -0.20 1.60 0 1 0.25 1.25 0.65 1.25 1.80 0 1.05 -0.25 1.50 -0.80 1.50 -0.45 0 -0.60 -0.25 -0.40 -0.60z"/>
  <path d="M274 31.65 c0 -0.35 0.45 -0.65 1 -0.65 0.55 0 1 -0.20 1 -0.50 0 -0.25 -0.50 -0.50 -1.10 -0.50 -0.60 0 -0.95 -0.15 -0.75 -0.30 0.15 -0.20 0.90 -0.20 1.60 0 1.85 0.45 1.70 2.10 -0.25 2.40 -1 0.15 -1.50 0 -1.50 -0.45z"/>
  <path d="M22.25 9.50 c0 -3.30 0.15 -6 0.40 -6 0.20 0 0.35 0.25 0.35 0.50 0 0.80 54.60 0.70 55.45 -0.15 0.55 -0.45 0.65 -0.45 0.35 0.05 -0.30 0.45 5.30 0.60 27.30 0.60 21.45 0 27.85 -0.15 28.35 -0.60 0.55 -0.55 0.60 -0.50 0.30 0 -0.30 0.55 1.20 0.65 7.75 0.55 l8.10 -0.10 0.05 5.20 0.10 5.20 -63.45 -0.15 c-42.30 -0.05 -63.65 0.05 -64 0.40 -0.25 0.25 -0.60 0.50 -0.75 0.50 -0.20 0 -0.30 -2.70 -0.30 -6z"/>
  <path d="M282.90 13.10 l1.15 -0.35 -1.05 -1.15 c-1.55 -1.65 -0.85 -1.95 0.85 -0.40 1.20 1.10 1.30 1.40 0.65 1.80 -0.40 0.25 -1.20 0.45 -1.75 0.45 -0.85 -0.05 -0.85 -0.10 0.15 -0.35z"/>
  <path d="M287.90 13.10 l1.15 -0.35 -1.05 -1.15 c-1.55 -1.65 -0.85 -1.95 0.85 -0.40 1.20 1.10 1.30 1.40 0.65 1.80 -0.40 0.25 -1.20 0.45 -1.75 0.45 -0.85 -0.05 -0.85 -0.10 0.15 -0.35z"/>
  <path d="M170.80 12.40 c0.25 -0.40 0 -0.45 -0.70 -0.30 -0.75 0.20 -1.10 0.10 -1.10 -0.40 0 -0.40 0.45 -0.70 1 -0.70 0.55 0 1 -0.20 1 -0.50 0 -0.25 -0.50 -0.50 -1.10 -0.50 -0.60 0 -0.95 -0.15 -0.75 -0.30 0.15 -0.20 0.90 -0.20 1.60 0 1 0.25 1.25 0.65 1.25 1.80 0 1.05 -0.25 1.50 -0.80 1.50 -0.45 0 -0.60 -0.25 -0.40 -0.60z"/>
  <path d="M179.80 12.40 c0.25 -0.40 0 -0.45 -0.70 -0.30 -0.75 0.20 -1.10 0.10 -1.10 -0.40 0 -0.40 0.45 -0.70 1 -0.70 0.55 0 1 -0.20 1 -0.50 0 -0.25 -0.50 -0.50 -1.10 -0.50 -0.60 0 -0.95 -0.15 -0.75 -0.30 0.15 -0.20 0.90 -0.20 1.60 0 1 0.25 1.25 0.65 1.25 1.80 0 1.05 -0.25 1.50 -0.80 1.50 -0.45 0 -0.60 -0.25 -0.40 -0.60z"/>
  <path d="M237.80 12.40 c0.25 -0.40 0 -0.45 -0.70 -0.30 -0.75 0.20 -1.10 0.10 -1.10 -0.40 0 -0.40 0.45 -0.70 1 -0.70 0.55 0 1 -0.20 1 -0.50 0 -0.25 -0.50 -0.50 -1.10 -0.50 -0.60 0 -0.95 -0.15 -0.75 -0.30 0.15 -0.20 0.90 -0.20 1.60 0 1 0.25 1.25 0.65 1.25 1.80 0 1.05 -0.25 1.50 -0.80 1.50 -0.45 0 -0.60 -0.25 -0.40 -0.60z"/>
 </g>
 <g fill="#000000">
  <path d="M261 52.50 c0 -3.45 0.05 -3.50 1.30 -3.50 3.25 0 3.70 3.95 0.60 5.15 -0.50 0.15 -0.90 0.65 -0.90 1.10 0 0.40 -0.20 0.75 -0.50 0.75 -0.30 0 -0.50 -1.50 -0.50 -3.50z m3 -1 c0 -1.15 -0.20 -1.50 -1 -1.50 -0.80 0 -1 0.35 -1 1.50 0 1.15 0.20 1.50 1 1.50 0.80 0 1 -0.35 1 -1.50z"/>
  <path d="M190 54.75 c0 -0.50 -0.50 -0.75 -1.50 -0.75 -1.75 0 -2 -0.75 -0.35 -1.25 0.70 -0.20 0.85 -0.40 0.45 -0.60 -0.35 -0.15 -0.95 0.05 -1.40 0.35 -1.05 0.90 -1.50 0.20 -0.50 -0.75 0.45 -0.50 1.15 -0.75 1.50 -0.60 0.70 0.30 0.85 0 2.10 -3.90 l0.60 -2 0.05 2.25 c0 1.25 -0.20 3.20 -0.40 4.40 -0.25 1.15 -0.25 2.25 0 2.40 0.60 0.35 0.55 1.20 -0.05 1.20 -0.25 0 -0.50 -0.35 -0.50 -0.75z"/>
  <path d="M230 54.75 c0 -0.40 0.25 -0.75 0.50 -0.75 0.30 0 0.50 0.35 0.50 0.75 0 0.40 -0.20 0.75 -0.50 0.75 -0.25 0 -0.50 -0.35 -0.50 -0.75z"/>
  <path d="M246.25 51.50 c0 -2.20 0.15 -4 0.40 -4 0.20 0 0.35 0.35 0.35 0.75 0 0.40 0.35 0.75 0.80 0.75 1.30 0 2.20 1.30 2.20 3.20 0 1.65 -0.10 1.80 -1.50 1.80 -1 0 -1.50 0.25 -1.50 0.75 0 0.40 -0.15 0.75 -0.40 0.75 -0.20 0 -0.35 -1.80 -0.35 -4z m2.50 1 c0.15 -0.25 -0.05 -0.50 -0.45 -0.50 -0.40 0 -0.90 0.25 -1.05 0.50 -0.15 0.30 0.05 0.50 0.45 0.50 0.40 0 0.90 -0.20 1.05 -0.50z m0.25 -1.75 c0 -0.40 -0.45 -0.75 -1 -0.75 -1.25 0 -1.30 0.85 -0.10 1.15 0.45 0.15 0.90 0.25 1 0.30 0.05 0 0.10 -0.30 0.10 -0.70z"/>
  <path d="M161 50.50 c0 -2.25 0.20 -3.50 0.55 -3.50 0.30 0 0.45 0.35 0.30 0.70 -0.20 0.50 -0.05 0.65 0.45 0.45 0.45 -0.15 0.70 0.05 0.70 0.60 0 0.80 1.10 2.25 1.70 2.25 0.15 0 0.30 -0.90 0.30 -2 0 -1.10 0.25 -2 0.50 -2 0.30 0 0.50 1.50 0.50 3.50 0 1.95 -0.15 3.50 -0.30 3.50 -0.50 0 -1.70 -1.40 -1.70 -2 0 -0.60 -1.20 -2 -1.70 -2 -0.15 0 -0.30 0.90 -0.30 2 0 1.10 -0.20 2 -0.50 2 -0.30 0 -0.50 -1.50 -0.50 -3.50z"/>
  <path d="M168.65 53.25 c-1.25 -1.40 -0.35 -4.25 1.35 -4.25 0.90 0 2 1.35 2 2.50 0 2.10 -2.10 3.20 -3.35 1.75z m2.25 -1.90 c0.15 -1.10 -0.05 -1.35 -0.85 -1.35 -0.85 0 -1.05 0.30 -1.05 1.55 0 1.20 0.20 1.50 0.90 1.35 0.50 -0.10 0.90 -0.70 1 -1.55z"/>
  <path d="M174 51.50 c0 -2.15 0.15 -2.50 1 -2.50 1.05 0 1.35 0.75 0.50 1.25 -0.25 0.15 -0.50 1.10 -0.50 2.05 0 0.95 -0.20 1.70 -0.50 1.70 -0.25 0 -0.50 -1.10 -0.50 -2.50z"/>
  <path d="M177 51.50 c0 -2.45 0.05 -2.50 1.45 -2.50 0.80 0 1.60 0.30 1.75 0.65 0.25 0.50 0.35 0.50 0.60 0 0.40 -0.85 1.60 -0.80 2.50 0.05 0.80 0.80 0.95 4.30 0.20 4.30 -0.25 0 -0.50 -0.90 -0.50 -2 0 -1.65 -0.15 -2 -1 -2 -0.85 0 -1 0.35 -1 2 0 1.10 -0.20 2 -0.50 2 -0.25 0 -0.50 -0.90 -0.50 -2 0 -1.65 -0.15 -2 -1 -2 -0.85 0 -1 0.35 -1 2 0 1.10 -0.20 2 -0.50 2 -0.25 0 -0.50 -1.10 -0.50 -2.50z"/>
  <path d="M192 50.50 c0 -2 0.20 -3.50 0.50 -3.50 0.30 0 0.50 1.50 0.50 3.50 0 2 -0.20 3.50 -0.50 3.50 -0.30 0 -0.50 -1.50 -0.50 -3.50z"/>
  <path d="M195 51.50 c0 -1.35 0.25 -2.50 0.50 -2.50 0.30 0 0.50 1.15 0.50 2.50 0 1.40 -0.20 2.50 -0.50 2.50 -0.25 0 -0.50 -1.10 -0.50 -2.50z"/>
  <path d="M198 53 c0 -0.55 0.45 -1.25 1 -1.60 0.55 -0.35 1 -0.80 1 -1 0 -0.25 -0.45 -0.40 -1 -0.40 -0.55 0 -1 -0.20 -1 -0.50 0 -0.25 0.70 -0.50 1.50 -0.50 1.15 0 1.50 0.25 1.50 0.95 0 0.50 -0.35 1.20 -0.75 1.55 -0.40 0.35 -0.75 0.85 -0.75 1.10 0 0.30 0.35 0.40 0.75 0.20 0.45 -0.15 0.75 0 0.75 0.45 0 0.50 -0.50 0.75 -1.50 0.75 -1.15 0 -1.50 -0.20 -1.50 -1z"/>
  <path d="M204 53.50 c0 -0.25 0.70 -0.50 1.50 -0.50 0.85 0 1.50 0.25 1.50 0.50 0 0.30 -0.65 0.50 -1.50 0.50 -0.80 0 -1.50 -0.20 -1.50 -0.50z"/>
  <path d="M212.65 53.25 c-0.35 -0.40 -0.65 -1.25 -0.65 -1.95 0 -0.65 -0.30 -1.30 -0.60 -1.45 -0.35 -0.10 -0.50 -0.40 -0.30 -0.60 0.60 -0.60 1.90 1.10 1.90 2.45 0 0.70 0.25 1.30 0.50 1.30 0.30 0 0.50 -0.60 0.50 -1.30 0 -1.30 1.30 -3.05 1.85 -2.50 0.20 0.15 0.05 0.60 -0.25 0.90 -0.35 0.35 -0.60 1 -0.60 1.55 0 0.80 -1.10 2.40 -1.60 2.35 -0.10 -0.05 -0.45 -0.35 -0.75 -0.75z"/>
  <path d="M217 51.50 c0 -1.35 0.25 -2.50 0.50 -2.50 0.30 0 0.50 1.15 0.50 2.50 0 1.40 -0.20 2.50 -0.50 2.50 -0.25 0 -0.50 -1.10 -0.50 -2.50z"/>
  <path d="M220.65 53.25 c-1.30 -1.45 -0.60 -3.60 1.50 -4.40 0.45 -0.15 0.85 -0.65 0.85 -1.10 0 -0.40 0.25 -0.75 0.50 -0.75 0.30 0 0.50 1.50 0.50 3.50 0 3.50 0 3.50 -1.35 3.50 -0.80 -0.05 -1.70 -0.35 -2 -0.75z m2.35 -1.75 c0 -1.15 -0.20 -1.50 -1 -1.50 -0.80 0 -1 0.35 -1 1.50 0 1.15 0.20 1.50 1 1.50 0.80 0 1 -0.35 1 -1.50z"/>
  <path d="M227 53.50 c0 -0.25 0.70 -0.50 1.50 -0.50 0.85 0 1.50 -0.20 1.50 -0.50 0 -0.25 -0.55 -0.50 -1.20 -0.50 -0.70 0 -1.40 0.25 -1.55 0.50 -0.60 0.95 -1.25 0.50 -1.25 -0.80 0 -1.35 1.20 -2.65 2.40 -2.70 0.30 0 0.60 0.25 0.60 0.50 0 0.30 -0.45 0.50 -1 0.50 -0.55 0 -1 0.20 -1 0.45 0 0.25 0.45 0.55 1 0.70 0.65 0.15 1 0 1 -0.45 0 -0.40 0.25 -0.70 0.50 -0.70 0.30 0 0.50 -0.55 0.50 -1.25 0 -0.70 0.25 -1.25 0.55 -1.25 0.40 0 0.45 0.90 0.20 2.90 -0.20 1.55 -0.45 3 -0.60 3.25 -0.30 0.55 -3.15 0.45 -3.15 -0.15z"/>
  <path d="M232.65 53.25 c-1.25 -1.40 -0.35 -4.25 1.35 -4.25 0.90 0 2 1.35 2 2.50 0 2.10 -2.10 3.20 -3.35 1.75z m2.25 -1.90 c0.15 -1.10 -0.05 -1.35 -0.85 -1.35 -0.85 0 -1.05 0.30 -1.05 1.55 0 1.20 0.20 1.50 0.90 1.35 0.50 -0.10 0.90 -0.70 1 -1.55z"/>
  <path d="M241 53.50 c0 -0.25 0.45 -0.50 1 -0.50 0.55 0 1 0.25 1 0.50 0 0.30 -0.45 0.50 -1 0.50 -0.55 0 -1 -0.20 -1 -0.50z"/>
  <path d="M252 51.50 c0 -2.45 0.05 -2.50 1.45 -2.50 0.80 0 1.60 0.30 1.75 0.65 0.25 0.50 0.35 0.50 0.60 0 0.40 -0.85 1.60 -0.80 2.50 0.05 0.80 0.80 0.95 4.30 0.20 4.30 -0.25 0 -0.50 -0.90 -0.50 -2 0 -1.65 -0.15 -2 -1 -2 -0.85 0 -1 0.35 -1 2 0 1.10 -0.20 2 -0.50 2 -0.25 0 -0.50 -0.90 -0.50 -2 0 -1.65 -0.15 -2 -1 -2 -0.85 0 -1 0.35 -1 2 0 1.10 -0.20 2 -0.50 2 -0.25 0 -0.50 -1.10 -0.50 -2.50z"/>
  <path d="M267 50.50 c0 -2 0.20 -3.50 0.50 -3.50 0.30 0 0.50 1.50 0.50 3.50 0 2 -0.20 3.50 -0.50 3.50 -0.30 0 -0.50 -1.50 -0.50 -3.50z"/>
  <path d="M271 53.50 c0 -0.25 0.70 -0.50 1.50 -0.50 0.85 0 1.50 0.25 1.50 0.50 0 0.30 -0.65 0.50 -1.50 0.50 -0.80 0 -1.50 -0.20 -1.50 -0.50z"/>
  <path d="M276 53.50 c0 -0.25 0.45 -0.50 1 -0.50 0.55 0 1 0.25 1 0.50 0 0.30 -0.45 0.50 -1 0.50 -0.55 0 -1 -0.20 -1 -0.50z"/>
  <path d="M203 51.70 c0 -1.30 1 -2.70 2 -2.70 0.85 0 2 1.30 2 2.20 0 0.50 -0.45 0.80 -1.20 0.80 -0.70 0 -1.40 0.25 -1.55 0.50 -0.60 0.95 -1.25 0.50 -1.25 -0.80z m3 -0.95 c0 -0.40 -0.45 -0.75 -1 -0.75 -1.25 0 -1.30 0.85 -0.10 1.15 0.45 0.15 0.90 0.25 1 0.30 0.05 0 0.10 -0.30 0.10 -0.70z"/>
  <path d="M242.15 51.70 c-1.60 -1.80 -1.80 -2.25 -0.95 -1.90 0.45 0.15 0.80 0.05 0.80 -0.25 0 -0.30 0.45 -0.55 1 -0.55 0.55 0 1 0.30 1 0.70 0 0.45 -0.35 0.60 -1 0.45 -0.55 -0.15 -1 -0.05 -1 0.15 0 0.25 0.45 0.75 1 1.10 0.55 0.35 1 0.85 1 1.10 0 0.85 -0.70 0.55 -1.85 -0.80z"/>
  <path d="M270 51.70 c0 -1.30 1 -2.70 2 -2.70 0.85 0 2 1.30 2 2.20 0 0.50 -0.45 0.80 -1.20 0.80 -0.70 0 -1.40 0.25 -1.55 0.50 -0.60 0.95 -1.25 0.50 -1.25 -0.80z m3 -1.20 c0 -0.25 -0.45 -0.50 -1 -0.50 -0.55 0 -1 0.25 -1 0.50 0 0.30 0.45 0.50 1 0.50 0.55 0 1 -0.20 1 -0.50z"/>
  <path d="M277.15 51.70 c-1 -1.10 -1.05 -1.35 -0.45 -2 0.95 -0.90 2.30 -0.90 2.30 0 0 0.45 -0.35 0.60 -1 0.45 -0.55 -0.15 -1 -0.05 -1 0.15 0 0.25 0.45 0.75 1 1.10 0.55 0.35 1 0.85 1 1.10 0 0.85 -0.70 0.55 -1.85 -0.80z"/>
  <path d="M187 49.50 c0 -0.25 0.45 -0.50 1 -0.50 0.55 0 1 0.25 1 0.50 0 0.30 -0.45 0.50 -1 0.50 -0.55 0 -1 -0.20 -1 -0.50z"/>
  <path d="M182 32.50 c0 -3.45 0.05 -3.50 1.30 -3.50 3.25 0 3.70 3.95 0.60 5.15 -0.50 0.15 -0.90 0.65 -0.90 1.10 0 0.40 -0.20 0.75 -0.50 0.75 -0.30 0 -0.50 -1.50 -0.50 -3.50z m3 -1 c0 -1.15 -0.20 -1.50 -1 -1.50 -0.80 0 -1 0.35 -1 1.50 0 1.15 0.20 1.50 1 1.50 0.80 0 1 -0.35 1 -1.50z"/>
  <path d="M134 34.25 c0 -0.70 -0.20 -1.25 -0.50 -1.25 -0.25 0 -0.50 -0.65 -0.50 -1.45 0 -0.80 -0.30 -1.55 -0.60 -1.70 -0.40 -0.10 -0.45 -0.40 -0.20 -0.65 0.25 -0.25 0.55 -0.20 0.65 0.20 0.40 1.05 1.15 0.65 1.15 -0.65 0 -0.70 0.25 -1.25 0.55 -1.25 0.35 0 0.50 0.60 0.35 1.50 -0.25 1.75 -0.25 1.75 0.85 0.70 0.45 -0.45 0.95 -0.70 1.10 -0.50 0.20 0.15 0.05 0.60 -0.25 0.90 -0.35 0.35 -0.60 1.10 -0.60 1.75 0 0.65 -0.20 1.15 -0.50 1.15 -0.25 0 -0.50 0.55 -0.50 1.25 0 0.70 -0.20 1.25 -0.50 1.25 -0.25 0 -0.50 -0.55 -0.50 -1.25z"/>
  <path d="M190.30 31.70 c0.05 -2.10 0.25 -3.90 0.40 -4.05 0.15 -0.20 0.30 0.20 0.30 0.80 0 0.60 0.30 1.45 0.70 1.85 0.85 0.80 2.30 0.95 2.30 0.20 0 -0.25 -0.45 -0.50 -1 -0.50 -0.55 0 -1 -0.20 -1 -0.50 0 -0.75 1.45 -0.60 2.30 0.20 1.15 1.15 0.85 2.30 -0.60 2.30 -1.55 0 -2.70 1.05 -2.70 2.45 0 0.60 -0.20 1.05 -0.40 1.05 -0.25 0 -0.40 -1.70 -0.30 -3.80z"/>
  <path d="M230 31.75 c0 -3.40 -0.10 -3.75 -1 -3.75 -0.55 0 -1 -0.20 -1 -0.50 0 -0.25 0.45 -0.50 1 -0.50 0.55 0 1 -0.35 1 -0.75 0 -0.40 0.25 -0.75 0.50 -0.75 0.30 0 0.50 0.35 0.50 0.75 0 0.40 0.45 0.75 1 0.75 0.55 0 1 0.25 1 0.50 0 0.30 -0.45 0.50 -1 0.50 -0.90 0 -1 0.35 -1 3.75 0 2.15 -0.20 3.75 -0.50 3.75 -0.30 0 -0.50 -1.60 -0.50 -3.75z"/>
  <path d="M246.35 35.15 c-0.50 -0.45 -0.40 -2.15 0.10 -2.15 0.25 0 0.45 0.55 0.45 1.25 0 1.35 -0.05 1.40 -0.55 0.90z"/>
  <path d="M267.85 33.45 c-0.50 -0.55 -0.95 -1.55 -1 -2.10 0 -0.60 -0.30 -1.30 -0.60 -1.50 -0.35 -0.30 -0.30 -0.50 0.15 -0.70 0.30 -0.10 0.60 -0.65 0.60 -1.20 0 -0.50 0.25 -0.95 0.50 -0.95 0.30 0 0.50 0.45 0.50 0.95 0 0.55 0.30 1.05 0.65 1.20 0.50 0.20 0.50 0.35 0 0.90 -0.80 0.80 -0.85 2.80 -0.05 3.05 0.30 0.10 0.45 0.50 0.35 0.80 -0.15 0.40 -0.50 0.25 -1.10 -0.45z"/>
  <path d="M97.65 33.25 c-0.90 -0.95 -0.80 -4.65 0.05 -5.55 0.40 -0.40 1.20 -0.70 1.80 -0.70 1.20 0 2.80 1.35 2.25 1.90 -0.20 0.20 -0.50 0.05 -0.60 -0.25 -0.15 -0.35 -0.90 -0.65 -1.70 -0.65 -1.40 0 -1.45 0.05 -1.45 2.50 0 2.40 0.05 2.50 1.40 2.50 0.75 0 1.65 -0.25 2 -0.60 0.35 -0.35 0.60 -0.45 0.60 -0.20 0 1.55 -3.25 2.35 -4.35 1.05z"/>
  <path d="M104.65 33.25 c-1.25 -1.40 -0.35 -4.25 1.35 -4.25 0.90 0 2 1.35 2 2.50 0 2.10 -2.10 3.20 -3.35 1.75z m2.25 -1.90 c0.15 -1.10 -0.05 -1.35 -0.85 -1.35 -0.85 0 -1.05 0.30 -1.05 1.55 0 1.20 0.20 1.50 0.90 1.35 0.50 -0.10 0.90 -0.70 1 -1.55z"/>
  <path d="M110 30.50 c0 -2 0.20 -3.50 0.50 -3.50 0.30 0 0.50 1.50 0.50 3.50 0 2 -0.20 3.50 -0.50 3.50 -0.30 0 -0.50 -1.50 -0.50 -3.50z"/>
  <path d="M113 30.50 c0 -2 0.20 -3.50 0.50 -3.50 0.30 0 0.50 1.50 0.50 3.50 0 2 -0.20 3.50 -0.50 3.50 -0.30 0 -0.50 -1.50 -0.50 -3.50z"/>
  <path d="M117 33.50 c0 -0.25 0.70 -0.50 1.50 -0.50 0.85 0 1.50 0.25 1.50 0.50 0 0.30 -0.65 0.50 -1.50 0.50 -0.80 0 -1.50 -0.20 -1.50 -0.50z"/>
  <path d="M122.65 33.25 c-0.85 -0.95 -0.80 -2.65 0.05 -3.55 0.85 -0.80 2.30 -0.95 2.30 -0.20 0 0.30 -0.45 0.50 -1 0.50 -0.80 0 -1 0.35 -1 1.50 0 1.15 0.20 1.50 1 1.50 0.55 0 1 0.25 1 0.50 0 0.75 -1.65 0.55 -2.35 -0.25z"/>
  <path d="M127.60 33.20 c-0.35 -0.40 -0.70 -1.25 -0.75 -1.85 0 -0.60 -0.30 -1.30 -0.60 -1.50 -0.35 -0.30 -0.30 -0.50 0.15 -0.70 0.30 -0.10 0.60 -0.65 0.60 -1.20 0 -1.35 0.65 -1.15 1.40 0.45 0.40 0.85 0.45 1.40 0.10 1.50 -0.65 0.25 -0.65 3.10 0 3.10 0.30 0 0.50 0.25 0.50 0.50 0 0.70 -0.65 0.60 -1.40 -0.30z"/>
  <path d="M138 31.50 c0 -1.35 0.25 -2.50 0.50 -2.50 0.30 0 0.50 1.15 0.50 2.50 0 1.40 -0.20 2.50 -0.50 2.50 -0.25 0 -0.50 -1.10 -0.50 -2.50z"/>
  <path d="M141.65 33.25 c-1.30 -1.45 -0.60 -3.60 1.50 -4.40 0.45 -0.15 0.85 -0.65 0.85 -1.10 0 -0.40 0.25 -0.75 0.50 -0.75 0.30 0 0.50 1.50 0.50 3.50 0 3.50 0 3.50 -1.35 3.50 -0.80 -0.05 -1.70 -0.35 -2 -0.75z m2.35 -1.75 c0 -1.15 -0.20 -1.50 -1 -1.50 -0.80 0 -1 0.35 -1 1.50 0 1.15 0.20 1.50 1 1.50 0.80 0 1 -0.35 1 -1.50z"/>
  <path d="M148 33.50 c0 -0.25 0.70 -0.50 1.50 -0.50 0.85 0 1.50 0.25 1.50 0.50 0 0.30 -0.65 0.50 -1.50 0.50 -0.80 0 -1.50 -0.20 -1.50 -0.50z"/>
  <path d="M153.65 33.25 c-1.25 -1.40 -0.35 -4.25 1.35 -4.25 0.90 0 2 1.35 2 2.50 0 2.10 -2.10 3.20 -3.35 1.75z m2.25 -1.90 c0.15 -1.10 -0.05 -1.35 -0.85 -1.35 -0.85 0 -1.05 0.30 -1.05 1.55 0 1.20 0.20 1.50 0.90 1.35 0.50 -0.10 0.90 -0.70 1 -1.55z"/>
  <path d="M162 33.50 c0 -0.25 0.45 -0.50 1 -0.50 0.55 0 1 0.25 1 0.50 0 0.30 -0.45 0.50 -1 0.50 -0.55 0 -1 -0.20 -1 -0.50z"/>
  <path d="M168 33.55 c0 -0.25 0.50 -0.60 1.15 -0.80 0.70 -0.20 0.85 -0.40 0.45 -0.60 -0.35 -0.15 -0.95 0.05 -1.40 0.35 -1.05 0.90 -1.50 0.20 -0.50 -0.75 0.45 -0.50 1.15 -0.70 1.55 -0.55 0.45 0.15 0.75 0 0.75 -0.45 0 -0.40 -0.45 -0.75 -1 -0.75 -0.55 0 -1 -0.20 -1 -0.50 0 -0.75 1.45 -0.60 2.30 0.20 0.40 0.40 0.70 1.55 0.70 2.50 0 1.65 -0.10 1.80 -1.50 1.80 -0.80 0 -1.50 -0.20 -1.50 -0.45z"/>
  <path d="M173 31.50 c0 -2.45 0.05 -2.50 1.45 -2.50 0.80 0 1.60 0.30 1.75 0.65 0.25 0.50 0.35 0.50 0.60 0 0.40 -0.85 1.60 -0.80 2.50 0.05 0.80 0.80 0.95 4.30 0.20 4.30 -0.25 0 -0.50 -0.90 -0.50 -2 0 -1.65 -0.15 -2 -1 -2 -0.85 0 -1 0.35 -1 2 0 1.10 -0.20 2 -0.50 2 -0.25 0 -0.50 -0.90 -0.50 -2 0 -1.65 -0.15 -2 -1 -2 -0.85 0 -1 0.35 -1 2 0 1.10 -0.20 2 -0.50 2 -0.25 0 -0.50 -1.10 -0.50 -2.50z"/>
  <path d="M188 30.50 c0 -2 0.20 -3.50 0.50 -3.50 0.30 0 0.50 1.50 0.50 3.50 0 2 -0.20 3.50 -0.50 3.50 -0.30 0 -0.50 -1.50 -0.50 -3.50z"/>
  <path d="M192 33.50 c0 -0.25 0.70 -0.50 1.50 -0.50 0.85 0 1.50 0.25 1.50 0.50 0 0.30 -0.65 0.50 -1.50 0.50 -0.80 0 -1.50 -0.20 -1.50 -0.50z"/>
  <path d="M197 33.50 c0 -0.25 0.45 -0.50 1 -0.50 0.55 0 1 0.25 1 0.50 0 0.30 -0.45 0.50 -1 0.50 -0.55 0 -1 -0.20 -1 -0.50z"/>
  <path d="M205 32.05 c0 -1.10 -0.25 -2.05 -0.60 -2.15 -0.45 -0.15 -0.40 -0.50 0.25 -1.15 0.85 -0.85 1 -0.85 1.75 -0.05 0.65 0.60 0.70 0.95 0.20 1.40 -0.35 0.35 -0.60 1.35 -0.60 2.25 0 0.90 -0.20 1.65 -0.50 1.65 -0.25 0 -0.50 -0.90 -0.50 -1.95z"/>
  <path d="M208 31.50 c0 -2.35 0.05 -2.50 1.35 -2.50 1.25 0 1.25 0.05 0.50 0.90 -0.50 0.50 -0.85 1.65 -0.85 2.50 0 0.90 -0.20 1.60 -0.50 1.60 -0.25 0 -0.50 -1.10 -0.50 -2.50z"/>
  <path d="M211.65 33.25 c-1.25 -1.40 -0.35 -4.25 1.35 -4.25 0.90 0 2 1.35 2 2.50 0 2.10 -2.10 3.20 -3.35 1.75z m2.25 -1.90 c0.15 -1.10 -0.05 -1.35 -0.85 -1.35 -0.85 0 -1.05 0.30 -1.05 1.55 0 1.20 0.20 1.50 0.90 1.35 0.50 -0.10 0.90 -0.70 1 -1.55z"/>
  <path d="M217 31.50 c0 -2.45 0.05 -2.50 1.45 -2.50 0.80 0 1.60 0.30 1.75 0.65 0.25 0.50 0.35 0.50 0.60 0 0.40 -0.85 1.60 -0.80 2.50 0.05 0.80 0.80 0.95 4.30 0.20 4.30 -0.25 0 -0.50 -0.90 -0.50 -2 0 -1.65 -0.15 -2 -1 -2 -0.85 0 -1 0.35 -1 2 0 1.10 -0.20 2 -0.50 2 -0.25 0 -0.50 -0.90 -0.50 -2 0 -1.65 -0.15 -2 -1 -2 -0.85 0 -1 0.35 -1 2 0 1.10 -0.20 2 -0.50 2 -0.25 0 -0.50 -1.10 -0.50 -2.50z"/>
  <path d="M235 33.25 c0 -0.85 0.90 -2.60 1.90 -3.65 0.50 -0.55 0.70 -0.55 1.35 0.10 0.95 0.90 0.95 2.30 0.05 2.30 -0.45 0 -0.60 -0.35 -0.45 -1 0.15 -0.55 0.05 -1 -0.15 -1 -0.50 0 -1.70 2.35 -1.70 3.35 0 0.35 -0.20 0.65 -0.50 0.65 -0.25 0 -0.50 -0.35 -0.50 -0.75z"/>
  <path d="M239 33.05 c0 -0.55 0.25 -1.15 0.50 -1.30 0.30 -0.15 0.50 -0.85 0.50 -1.55 0 -0.65 0.25 -1.20 0.50 -1.20 0.70 0 0.65 2.05 -0.10 3.65 -0.75 1.60 -1.40 1.75 -1.40 0.40z"/>
  <path d="M242 31.50 c0 -1.35 0.25 -2.50 0.50 -2.50 0.30 0 0.50 1.15 0.50 2.50 0 1.40 -0.20 2.50 -0.50 2.50 -0.25 0 -0.50 -1.10 -0.50 -2.50z"/>
  <path d="M248.50 33.10 c-0.85 -0.95 -0.75 -2.45 0.25 -3.45 0.80 -0.75 2.25 -0.85 2.25 -0.15 0 0.30 -0.45 0.50 -1 0.50 -0.80 0 -1 0.35 -1 1.50 0 1.15 0.20 1.50 1 1.50 0.55 0 1 0.25 1 0.50 0 0.80 -1.70 0.55 -2.50 -0.40z"/>
  <path d="M253 30.50 c0 -2 0.20 -3.50 0.50 -3.50 0.30 0 0.50 0.45 0.50 1 0 0.60 0.35 1 0.80 1 0.40 0 1.10 0.30 1.50 0.70 0.80 0.80 0.95 4.30 0.20 4.30 -0.25 0 -0.50 -0.90 -0.50 -2.05 0 -1.65 -0.15 -2 -0.85 -1.85 -0.65 0.10 -0.95 0.70 -1.05 2.05 -0.25 3.25 -1.10 2 -1.10 -1.65z"/>
  <path d="M262 33.50 c0 -0.25 0.45 -0.50 1 -0.50 0.55 0 1 0.25 1 0.50 0 0.30 -0.45 0.50 -1 0.50 -0.55 0 -1 -0.20 -1 -0.50z"/>
  <path d="M270 31.50 c0 -2.35 0.05 -2.50 1.35 -2.50 1.25 0 1.25 0.05 0.50 0.90 -0.50 0.50 -0.85 1.65 -0.85 2.50 0 0.90 -0.20 1.60 -0.50 1.60 -0.25 0 -0.50 -1.10 -0.50 -2.50z"/>
  <path d="M274 33.50 c0 -0.25 0.70 -0.50 1.50 -0.50 0.85 0 1.50 0.25 1.50 0.50 0 0.30 -0.65 0.50 -1.50 0.50 -0.80 0 -1.50 -0.20 -1.50 -0.50z"/>
  <path d="M280 33.55 c0 -0.25 0.50 -0.60 1.15 -0.80 0.70 -0.20 0.85 -0.40 0.45 -0.60 -0.35 -0.15 -0.95 0.05 -1.40 0.35 -1.05 0.90 -1.50 0.20 -0.50 -0.75 0.45 -0.50 1.15 -0.70 1.55 -0.55 0.45 0.15 0.75 0 0.75 -0.45 0 -0.40 -0.45 -0.75 -1 -0.75 -0.55 0 -1 -0.20 -1 -0.50 0 -0.75 1.45 -0.60 2.30 0.20 0.40 0.40 0.70 1.55 0.70 2.50 0 1.65 -0.10 1.80 -1.50 1.80 -0.80 0 -1.50 -0.20 -1.50 -0.45z"/>
  <path d="M285 31.50 c0 -2.45 0.05 -2.50 1.45 -2.50 0.80 0 1.60 0.30 1.75 0.65 0.25 0.50 0.35 0.50 0.60 0 0.40 -0.85 1.60 -0.80 2.50 0.05 0.80 0.80 0.95 4.30 0.20 4.30 -0.25 0 -0.50 -0.90 -0.50 -2 0 -1.65 -0.15 -2 -1 -2 -0.85 0 -1 0.35 -1 2 0 1.10 -0.20 2 -0.50 2 -0.25 0 -0.50 -0.90 -0.50 -2 0 -1.65 -0.15 -2 -1 -2 -0.85 0 -1 0.35 -1 2 0 1.10 -0.20 2 -0.50 2 -0.25 0 -0.50 -1.10 -0.50 -2.50z"/>
  <path d="M294 33.50 c0 -0.25 0.45 -0.50 1 -0.50 0.55 0 1 0.25 1 0.50 0 0.30 -0.45 0.50 -1 0.50 -0.55 0 -1 -0.20 -1 -0.50z"/>
  <path d="M116 31.70 c0 -1.30 1 -2.70 2 -2.70 0.85 0 2 1.30 2 2.20 0 0.50 -0.45 0.80 -1.20 0.80 -0.70 0 -1.40 0.25 -1.55 0.50 -0.60 0.95 -1.25 0.50 -1.25 -0.80z m3 -1.20 c0 -0.25 -0.45 -0.50 -1 -0.50 -0.55 0 -1 0.25 -1 0.50 0 0.30 0.45 0.50 1 0.50 0.55 0 1 -0.20 1 -0.50z"/>
  <path d="M147 31.70 c0 -1.30 1 -2.70 2 -2.70 0.85 0 2 1.30 2 2.20 0 0.50 -0.45 0.80 -1.20 0.80 -0.70 0 -1.40 0.25 -1.55 0.50 -0.60 0.95 -1.25 0.50 -1.25 -0.80z m3 -1.20 c0 -0.25 -0.45 -0.50 -1 -0.50 -0.55 0 -1 0.25 -1 0.50 0 0.30 0.45 0.50 1 0.50 0.55 0 1 -0.20 1 -0.50z"/>
  <path d="M163.15 31.70 c-1.60 -1.80 -1.80 -2.25 -0.95 -1.90 0.45 0.15 0.80 0.05 0.80 -0.25 0 -0.30 0.45 -0.55 1 -0.55 0.55 0 1 0.30 1 0.70 0 0.45 -0.35 0.60 -1 0.45 -0.55 -0.15 -1 -0.05 -1 0.15 0 0.25 0.45 0.75 1 1.10 0.55 0.35 1 0.85 1 1.10 0 0.85 -0.70 0.55 -1.85 -0.80z"/>
  <path d="M198.15 31.70 c-1 -1.10 -1.05 -1.35 -0.45 -2 0.95 -0.90 2.30 -0.90 2.30 0 0 0.45 -0.35 0.60 -1 0.45 -0.55 -0.15 -1 -0.05 -1 0.15 0 0.25 0.45 0.75 1 1.10 0.55 0.35 1 0.85 1 1.10 0 0.85 -0.70 0.55 -1.85 -0.80z"/>
  <path d="M245 31.55 c0 -0.80 -0.30 -1.60 -0.60 -1.75 -0.50 -0.25 -0.50 -0.35 0 -0.60 0.30 -0.15 0.60 -0.70 0.60 -1.25 0 -0.50 0.25 -0.95 0.50 -0.95 0.30 0 0.50 -0.35 0.50 -0.75 0 -0.40 0.20 -0.75 0.40 -0.75 0.45 0 0.30 6.25 -0.15 7.05 -0.60 0.95 -1.25 0.40 -1.25 -1z"/>
  <path d="M263.15 31.70 c-1.60 -1.80 -1.80 -2.25 -0.95 -1.90 0.45 0.15 0.80 0.05 0.80 -0.25 0 -0.30 0.45 -0.55 1 -0.55 0.55 0 1 0.30 1 0.70 0 0.45 -0.35 0.60 -1 0.45 -0.55 -0.15 -1 -0.05 -1 0.15 0 0.25 0.45 0.75 1 1.10 0.55 0.35 1 0.85 1 1.10 0 0.85 -0.70 0.55 -1.85 -0.80z"/>
  <path d="M273 31.70 c0 -1.30 1 -2.70 2 -2.70 0.85 0 2 1.30 2 2.20 0 0.50 -0.45 0.80 -1.20 0.80 -0.70 0 -1.40 0.25 -1.55 0.50 -0.60 0.95 -1.25 0.50 -1.25 -0.80z m3 -0.95 c0 -0.40 -0.45 -0.75 -1 -0.75 -1.25 0 -1.30 0.85 -0.10 1.15 0.45 0.15 0.90 0.25 1 0.30 0.05 0 0.10 -0.30 0.10 -0.70z"/>
  <path d="M295.15 31.70 c-1 -1.10 -1.05 -1.35 -0.45 -2 0.95 -0.90 2.30 -0.90 2.30 0 0 0.45 -0.35 0.60 -1 0.45 -0.55 -0.15 -1 -0.05 -1 0.15 0 0.25 0.45 0.75 1 1.10 0.55 0.35 1 0.85 1 1.10 0 0.85 -0.70 0.55 -1.85 -0.80z"/>
  <path d="M233.90 31.15 c-0.30 -1.10 0.05 -2.15 0.65 -2.15 0.25 0 0.45 0.70 0.45 1.50 0 1.65 -0.75 2.05 -1.10 0.65z"/>
  <path d="M302 16.80 c0 -0.40 -0.30 -0.85 -0.60 -1 -0.50 -0.25 -0.50 -0.35 0 -0.60 0.70 -0.35 0.80 -2.20 0.10 -2.20 -0.25 0 -0.50 -0.65 -0.50 -1.50 0 -0.80 0.25 -1.50 0.50 -1.50 0.30 0 0.50 -0.60 0.50 -1.35 0.05 -1.20 0.10 -1.25 0.55 -0.50 0.25 0.45 0.95 0.85 1.45 0.85 0.90 0 1 0.35 1 2.90 0 2.45 -0.15 3 -1.25 3.80 -0.65 0.50 -1.10 1.10 -0.95 1.35 0.15 0.25 0 0.45 -0.25 0.45 -0.30 0 -0.55 -0.30 -0.55 -0.70z m1.90 -5.45 c0.10 -0.95 -0.05 -1.35 -0.60 -1.35 -0.55 0 -0.80 0.50 -0.80 1.55 0 1.90 1.20 1.75 1.40 -0.20z"/>
  <path d="M230 15 c0 -0.55 -0.20 -1 -0.50 -1 -0.25 0 -0.50 -0.90 -0.50 -2 0 -1.65 -0.15 -2 -1 -2 -0.85 0 -1 0.35 -1 2 0 1.10 -0.20 2 -0.50 2 -0.25 0 -0.50 -1.10 -0.50 -2.50 0 -2.45 0.05 -2.50 1.50 -2.50 0.85 0 1.50 0.25 1.50 0.50 0 0.30 0.25 0.50 0.50 0.50 0.30 0 0.50 -0.60 0.50 -1.35 0 -0.70 0.15 -1.15 0.30 -1 0.50 0.50 0.60 8.35 0.10 8.35 -0.20 0 -0.40 -0.45 -0.40 -1z"/>
  <path d="M256 12.50 c0 -3.45 0.05 -3.50 1.30 -3.50 3.25 0 3.70 3.95 0.60 5.15 -0.50 0.15 -0.90 0.65 -0.90 1.10 0 0.40 -0.20 0.75 -0.50 0.75 -0.30 0 -0.50 -1.50 -0.50 -3.50z m3 -1 c0 -1.15 -0.20 -1.50 -1 -1.50 -0.80 0 -1 0.35 -1 1.50 0 1.15 0.20 1.50 1 1.50 0.80 0 1 -0.35 1 -1.50z"/>
  <path d="M190.25 11.50 c0 -2.20 0.15 -4 0.40 -4 0.20 0 0.35 0.55 0.35 1.25 0 0.70 0.25 1.25 0.50 1.25 0.30 0 0.50 -0.20 0.50 -0.50 0 -0.75 1.45 -0.60 2.30 0.20 1.40 1.45 0.40 4.30 -1.50 4.30 -0.45 0 -0.80 -0.20 -0.80 -0.50 0 -0.25 -0.20 -0.50 -0.50 -0.50 -0.25 0 -0.50 0.55 -0.50 1.25 0 0.70 -0.20 1.25 -0.40 1.25 -0.20 0 -0.40 -1.80 -0.35 -4z m3.45 0.70 c0.55 -1.45 0.30 -2.20 -0.70 -2.20 -0.80 0 -1 0.35 -1 1.50 0 1.60 1.15 2.10 1.70 0.70z"/>
  <path d="M246.25 11.75 c0.05 -2.10 0.25 -3.90 0.45 -4.10 0.15 -0.15 0.30 0.30 0.30 1 0 0.75 0.25 1.35 0.50 1.35 0.30 0 0.50 -0.20 0.50 -0.45 0 -0.25 0.45 -0.55 1 -0.70 0.55 -0.15 1 -0.60 1 -1.05 0 -0.45 0.25 -0.80 0.50 -0.80 0.30 0 0.50 1.50 0.50 3.50 l0 3.50 -1.50 0 c-0.80 0 -1.50 -0.20 -1.50 -0.50 0 -0.25 -0.20 -0.50 -0.50 -0.50 -0.25 0 -0.50 0.55 -0.50 1.25 0 0.70 -0.20 1.25 -0.40 1.25 -0.25 0 -0.40 -1.70 -0.35 -3.75z m3.75 -0.25 c0 -1.15 -0.20 -1.50 -1 -1.50 -0.80 0 -1 0.35 -1 1.50 0 1.15 0.20 1.50 1 1.50 0.80 0 1 -0.35 1 -1.50z"/>
  <path d="M214.85 13.45 c-0.50 -0.55 -0.95 -1.55 -1 -2.10 0 -0.60 -0.30 -1.30 -0.60 -1.50 -0.35 -0.30 -0.30 -0.50 0.15 -0.70 0.30 -0.10 0.60 -0.65 0.60 -1.20 0 -1.35 0.65 -1.15 1.40 0.40 0.40 0.90 0.45 1.50 0.10 1.85 -0.70 0.70 -0.65 2.65 0.10 2.90 0.30 0.10 0.45 0.50 0.35 0.80 -0.15 0.40 -0.50 0.25 -1.10 -0.45z"/>
  <path d="M298.65 14.15 c-0.40 -0.10 -0.65 -1.10 -0.65 -2.20 0 -1.60 -0.15 -1.95 -1 -1.95 -0.85 0 -1 0.35 -1 2 0 1.10 -0.20 2 -0.50 2 -0.25 0 -0.50 -1.10 -0.50 -2.50 0 -2.35 0.10 -2.50 1.30 -2.50 1.75 0 2.55 0.95 2.80 3.40 0.10 1.15 0.15 2.10 0.15 2.05 0 0 -0.30 -0.15 -0.60 -0.30z"/>
  <path d="M161 10.50 l0 -3.50 1.80 0 c2.30 0 3.20 0.95 3.20 3.50 0 2.55 -0.90 3.50 -3.20 3.50 l-1.80 0 0 -3.50z m4 0 c0 -2.45 -0.05 -2.50 -1.50 -2.50 -1.45 0 -1.50 0.05 -1.50 2.50 0 2.45 0.05 2.50 1.50 2.50 1.45 0 1.50 -0.05 1.50 -2.50z"/>
  <path d="M169 13.55 c0 -0.25 0.50 -0.60 1.15 -0.80 0.70 -0.20 0.85 -0.40 0.45 -0.60 -0.35 -0.15 -0.95 0.05 -1.40 0.35 -1.05 0.90 -1.50 0.20 -0.50 -0.75 0.45 -0.50 1.15 -0.70 1.55 -0.55 0.45 0.15 0.75 0 0.75 -0.45 0 -0.40 -0.45 -0.75 -1 -0.75 -0.55 0 -1 -0.20 -1 -0.50 0 -0.75 1.45 -0.60 2.30 0.20 0.40 0.40 0.70 1.55 0.70 2.50 0 1.65 -0.10 1.80 -1.50 1.80 -0.80 0 -1.50 -0.20 -1.50 -0.45z"/>
  <path d="M174.60 13.20 c-0.35 -0.40 -0.70 -1.25 -0.75 -1.85 0 -0.60 -0.30 -1.30 -0.60 -1.50 -0.35 -0.30 -0.30 -0.50 0.15 -0.70 0.30 -0.10 0.60 -0.65 0.60 -1.20 0 -1.35 0.65 -1.15 1.40 0.45 0.40 0.85 0.45 1.40 0.10 1.50 -0.65 0.25 -0.65 3.10 0 3.10 0.30 0 0.50 0.25 0.50 0.50 0 0.70 -0.65 0.60 -1.40 -0.30z"/>
  <path d="M178 13.55 c0 -0.25 0.50 -0.60 1.15 -0.80 0.70 -0.20 0.85 -0.40 0.45 -0.60 -0.35 -0.15 -0.95 0.05 -1.40 0.35 -1.05 0.90 -1.50 0.20 -0.50 -0.75 0.45 -0.50 1.15 -0.70 1.55 -0.55 0.45 0.15 0.75 0 0.75 -0.45 0 -0.40 -0.45 -0.75 -1 -0.75 -0.55 0 -1 -0.20 -1 -0.50 0 -0.75 1.45 -0.60 2.30 0.20 0.40 0.40 0.70 1.55 0.70 2.50 0 1.65 -0.10 1.80 -1.50 1.80 -0.80 0 -1.50 -0.20 -1.50 -0.45z"/>
  <path d="M186.65 13.25 c-0.85 -0.95 -0.80 -2.65 0.05 -3.55 0.85 -0.80 2.30 -0.95 2.30 -0.20 0 0.30 -0.45 0.50 -1 0.50 -0.80 0 -1 0.35 -1 1.50 0 1.15 0.20 1.50 1 1.50 0.55 0 1 0.25 1 0.50 0 0.75 -1.65 0.55 -2.35 -0.25z"/>
  <path d="M197 10.50 c0 -2 0.20 -3.50 0.50 -3.50 0.30 0 0.50 1.50 0.50 3.50 0 2 -0.20 3.50 -0.50 3.50 -0.30 0 -0.50 -1.50 -0.50 -3.50z"/>
  <path d="M200 10.50 c0 -2 0.20 -3.50 0.50 -3.50 0.30 0 0.50 1.50 0.50 3.50 0 2 -0.20 3.50 -0.50 3.50 -0.30 0 -0.50 -1.50 -0.50 -3.50z"/>
  <path d="M204 13.50 c0 -0.25 0.70 -0.50 1.50 -0.50 0.85 0 1.50 0.25 1.50 0.50 0 0.30 -0.65 0.50 -1.50 0.50 -0.80 0 -1.50 -0.20 -1.50 -0.50z"/>
  <path d="M209.65 13.25 c-0.85 -0.95 -0.80 -2.65 0.05 -3.55 0.85 -0.80 2.30 -0.95 2.30 -0.20 0 0.30 -0.45 0.50 -1 0.50 -0.80 0 -1 0.35 -1 1.50 0 1.15 0.20 1.50 1 1.50 0.55 0 1 0.25 1 0.50 0 0.75 -1.65 0.55 -2.35 -0.25z"/>
  <path d="M217 11.50 c0 -1.35 0.25 -2.50 0.50 -2.50 0.30 0 0.50 1.15 0.50 2.50 0 1.40 -0.20 2.50 -0.50 2.50 -0.25 0 -0.50 -1.10 -0.50 -2.50z"/>
  <path d="M220.65 13.25 c-1.25 -1.40 -0.35 -4.25 1.35 -4.25 0.90 0 2 1.35 2 2.50 0 2.10 -2.10 3.20 -3.35 1.75z m2.25 -1.90 c0.15 -1.10 -0.05 -1.35 -0.85 -1.35 -0.85 0 -1.05 0.30 -1.05 1.55 0 1.20 0.20 1.50 0.90 1.35 0.50 -0.10 0.90 -0.70 1 -1.55z"/>
  <path d="M236 13.55 c0 -0.25 0.50 -0.60 1.15 -0.80 0.70 -0.20 0.90 -0.40 0.45 -0.60 -0.40 -0.15 -0.95 0 -1.25 0.30 -0.75 0.75 -1.20 0.70 -1.50 -0.15 -0.20 -0.50 -0.05 -0.65 0.45 -0.45 0.35 0.15 0.70 0 0.70 -0.35 0 -0.35 0.40 -0.50 1 -0.35 0.65 0.15 1 0 1 -0.45 0 -0.40 -0.45 -0.70 -1 -0.70 -0.55 0 -1 -0.20 -1 -0.50 0 -0.75 1.45 -0.60 2.30 0.20 0.40 0.40 0.70 1.55 0.70 2.50 0 1.65 -0.10 1.80 -1.50 1.80 -0.80 0 -1.50 -0.20 -1.50 -0.45z"/>
  <path d="M241 11.50 c0 -2.35 0.10 -2.50 1.30 -2.50 0.70 0 1.60 0.30 2 0.70 0.80 0.80 0.95 4.30 0.20 4.30 -0.25 0 -0.50 -0.90 -0.50 -2 0 -1.65 -0.15 -2 -1 -2 -0.85 0 -1 0.35 -1 2 0 1.10 -0.20 2 -0.50 2 -0.25 0 -0.50 -1.10 -0.50 -2.50z"/>
  <path d="M262 11.50 c0 -2.15 0.15 -2.50 1 -2.50 1.05 0 1.35 0.75 0.50 1.25 -0.25 0.15 -0.50 1.10 -0.50 2.05 0 0.95 -0.20 1.70 -0.50 1.70 -0.25 0 -0.50 -1.10 -0.50 -2.50z"/>
  <path d="M265.65 13.25 c-1.25 -1.40 -0.35 -4.25 1.35 -4.25 0.90 0 2 1.35 2 2.50 0 2.10 -2.10 3.20 -3.35 1.75z m2.25 -1.90 c0.15 -1.10 -0.05 -1.35 -0.85 -1.35 -0.85 0 -1.05 0.30 -1.05 1.55 0 1.20 0.20 1.50 0.90 1.35 0.50 -0.10 0.90 -0.70 1 -1.55z"/>
  <path d="M271.65 13.25 c-0.85 -0.95 -0.80 -2.65 0.05 -3.55 0.85 -0.80 2.30 -0.95 2.30 -0.20 0 0.30 -0.45 0.50 -1 0.50 -0.80 0 -1 0.35 -1 1.50 0 1.15 0.20 1.50 1 1.50 0.55 0 1 0.25 1 0.50 0 0.75 -1.65 0.55 -2.35 -0.25z"/>
  <path d="M277 13.50 c0 -0.25 0.70 -0.50 1.50 -0.50 0.85 0 1.50 0.25 1.50 0.50 0 0.30 -0.65 0.50 -1.50 0.50 -0.80 0 -1.50 -0.20 -1.50 -0.50z"/>
  <path d="M282 13.50 c0 -0.25 0.45 -0.50 1 -0.50 0.55 0 1 0.25 1 0.50 0 0.30 -0.45 0.50 -1 0.50 -0.55 0 -1 -0.20 -1 -0.50z"/>
  <path d="M287 13.50 c0 -0.25 0.45 -0.50 1 -0.50 0.55 0 1 0.25 1 0.50 0 0.30 -0.45 0.50 -1 0.50 -0.55 0 -1 -0.20 -1 -0.50z"/>
  <path d="M292 11.50 c0 -1.35 0.25 -2.50 0.50 -2.50 0.30 0 0.50 1.15 0.50 2.50 0 1.40 -0.20 2.50 -0.50 2.50 -0.25 0 -0.50 -1.10 -0.50 -2.50z"/>
  <path d="M203 11.70 c0 -1.30 1 -2.70 2 -2.70 0.85 0 2 1.30 2 2.20 0 0.50 -0.45 0.80 -1.20 0.80 -0.70 0 -1.40 0.25 -1.55 0.50 -0.60 0.95 -1.25 0.50 -1.25 -0.80z m3 -1.20 c0 -0.25 -0.45 -0.50 -1 -0.50 -0.55 0 -1 0.25 -1 0.50 0 0.30 0.45 0.50 1 0.50 0.55 0 1 -0.20 1 -0.50z"/>
  <path d="M276 11.70 c0 -1.30 1 -2.70 2 -2.70 0.85 0 2 1.30 2 2.20 0 0.50 -0.45 0.80 -1.20 0.80 -0.70 0 -1.40 0.25 -1.55 0.50 -0.60 0.95 -1.25 0.50 -1.25 -0.80z m3 -1.20 c0 -0.25 -0.45 -0.50 -1 -0.50 -0.55 0 -1 0.25 -1 0.50 0 0.30 0.45 0.50 1 0.50 0.55 0 1 -0.20 1 -0.50z"/>
  <path d="M283.15 11.70 c-1 -1.10 -1.05 -1.35 -0.45 -2 0.95 -0.90 2.30 -0.90 2.30 0 0 0.45 -0.35 0.60 -1 0.45 -0.55 -0.15 -1 -0.05 -1 0.15 0 0.25 0.45 0.75 1 1.10 0.55 0.35 1 0.85 1 1.10 0 0.85 -0.70 0.55 -1.85 -0.80z"/>
  <path d="M288.15 11.70 c-1.60 -1.80 -1.80 -2.25 -0.95 -1.90 0.45 0.15 0.80 0.05 0.80 -0.25 0 -0.30 0.45 -0.55 1 -0.55 0.55 0 1 0.30 1 0.70 0 0.45 -0.35 0.60 -1 0.45 -0.55 -0.15 -1 -0.05 -1 0.15 0 0.25 0.45 0.75 1 1.10 0.55 0.35 1 0.85 1 1.10 0 0.85 -0.70 0.55 -1.85 -0.80z"/>
 </g>
 <g fill="#b5b6b3">
  <path d="M0 59.50 c0 -0.30 4 -0.50 11 -0.50 l11 0 0 -9.50 0 -9.50 -11 0 c-7 0 -11 -0.20 -11 -0.50 0 -0.30 4 -0.50 11 -0.50 l11 0 0 -2.80 c0 -2.35 0.15 -2.75 0.80 -2.50 0.45 0.15 1 0.30 1.25 0.30 0.25 0 0.45 0.25 0.45 0.50 0 0.30 -0.35 0.50 -0.75 0.50 -0.55 0 -0.75 0.55 -0.75 2 l0 2 27.50 0 27.50 0 0 -2 c0 -1.45 -0.20 -2 -0.75 -2 -0.40 0 -0.75 -0.20 -0.75 -0.50 0 -0.25 0.80 -0.50 1.75 -0.50 0.95 0 1.75 0.25 1.75 0.50 0 0.30 -0.20 0.50 -0.50 0.50 -0.25 0 -0.50 0.90 -0.50 2 l0 2 27.50 0 27.50 0 0 -2.50 c0 -1.35 0.25 -2.50 0.50 -2.50 0.30 0 0.50 1.15 0.50 2.50 l0 2.50 27.50 0 27.50 0 0 -2.70 c0 -1.50 0.25 -2.90 0.50 -3.05 0.30 -0.20 0.50 0.85 0.50 2.70 l0 3.05 19.50 0 c17 0 19.50 -0.10 19.50 -0.75 0 -0.40 0.25 -0.75 0.50 -0.75 0.30 0 0.50 0.35 0.50 0.75 0 0.65 1.15 0.75 7.50 0.75 l7.50 0 0.05 -1.85 c0.05 -1.05 0.05 -2.20 0 -2.60 -0.10 -0.35 0.10 -0.50 0.40 -0.30 0.30 0.15 0.55 1.30 0.55 2.55 l0 2.20 27.50 0 27.50 0 0 -9.50 0 -9.50 -27.50 0 -27.50 0 0 3.20 c0 1.80 -0.20 3.40 -0.50 3.55 -0.30 0.20 -0.50 -1 -0.50 -3.20 l0 -3.55 -7.50 0 c-6.45 0 -7.50 0.10 -7.50 0.80 0 0.40 -0.25 0.60 -0.55 0.45 -0.30 -0.20 -0.40 -0.60 -0.30 -0.95 0.15 -0.40 -4.80 -0.50 -19.45 -0.40 l-19.70 0.10 0 5.10 c0 2.80 -0.15 4.90 -0.35 4.70 -0.25 -0.20 -0.40 -1 -0.45 -1.70 0 -0.75 -0.05 -2.85 -0.10 -4.70 l-0.10 -3.40 -27.50 0 -27.50 0 -0.05 5.15 c-0.05 2.80 0 5.70 0.05 6.50 0.05 0.75 -0.15 1.35 -0.40 1.35 -0.25 0 -0.50 -0.30 -0.45 -0.60 0 -0.35 -0.05 -3.30 -0.05 -6.50 l-0.10 -5.90 -27.50 0 -27.50 0 0 2 c0 1.50 0.20 2 0.80 2 0.40 0 0.60 0.25 0.45 0.50 -0.40 0.65 -3.75 0.65 -3.75 0 0 -0.25 0.35 -0.50 0.75 -0.50 0.55 0 0.75 -0.55 0.75 -2 l0 -2 -27.50 0 -27.50 0 0 2 c0 1.45 0.20 2 0.75 2 0.40 0 0.75 0.25 0.75 0.50 0 0.30 -0.20 0.50 -0.45 0.50 -0.25 0 -0.80 0.15 -1.25 0.30 -0.65 0.25 -0.80 -0.15 -0.80 -2.50 l0 -2.80 -11 0 c-7 0 -11 -0.20 -11 -0.50 0 -0.30 4 -0.50 11 -0.50 l11 0 0 -2.45 c0 -2.60 0.35 -3.25 1.45 -2.60 0.45 0.30 0.50 0.55 0.10 0.75 -0.30 0.20 -0.55 1.25 -0.55 2.35 l0 1.95 27.50 0 27.50 0 0 -2 c0 -1.10 0.25 -2 0.50 -2 0.30 0 0.50 0.90 0.50 2 l0 2 27.50 0 27.50 0 0 -2 c0 -1.10 0.25 -2 0.50 -2 0.30 0 0.50 0.90 0.50 2 l0 2 27.50 0 27.50 0 0 -2.60 c0 -1.45 0.25 -3 0.50 -3.40 0.35 -0.55 0.50 0.25 0.50 2.65 l0 3.35 19.50 0 c17 0 19.50 -0.10 19.50 -0.75 0 -0.40 0.25 -0.75 0.50 -0.75 0.30 0 0.50 0.35 0.50 0.75 0 0.65 1.15 0.75 7.50 0.75 l7.50 0 0 -2.70 c0 -1.50 0.25 -2.90 0.50 -3.05 0.30 -0.20 0.50 0.85 0.50 2.70 l0 3.05 27.50 0 27.50 0 0 -1.50 c0 -0.80 0.20 -1.50 0.50 -1.50 0.25 0 0.45 0.15 0.45 0.35 -0.05 0.25 -0.05 0.90 0 1.55 0.05 1.05 0.25 1.10 3.55 1.10 2 0 3.50 0.20 3.50 0.50 0 0.30 -1.50 0.50 -3.50 0.50 l-3.50 0 0 9.50 0 9.50 3.50 0 c2 0 3.50 0.20 3.50 0.50 0 0.30 -1.50 0.50 -3.50 0.50 l-3.50 0 0 9.50 0 9.50 3.50 0 c2 0 3.50 0.20 3.50 0.50 0 0.35 -52 0.50 -155 0.50 -103 0 -155 -0.15 -155 -0.50z m78 -10 l0 -9.50 -27.50 0 -27.50 0 0 9.50 0 9.50 27.50 0 27.50 0 0 -9.50z m56 7.50 c0 -1.45 -0.20 -2 -0.75 -2 -0.40 0 -0.75 -0.20 -0.75 -0.50 0 -0.25 0.80 -0.50 1.75 -0.50 0.95 0 1.75 0.25 1.75 0.50 0 0.30 -0.20 0.50 -0.50 0.50 -0.25 0 -0.50 0.90 -0.50 2 l0 2 27.50 0 27.50 0 0 -2.55 c0 -1.55 0.20 -2.40 0.50 -2.20 0.30 0.15 0.50 1.30 0.50 2.55 l0 2.20 19.50 0 c17 0 19.50 -0.10 19.50 -0.75 0 -0.40 0.25 -0.75 0.50 -0.75 0.30 0 0.50 0.35 0.50 0.75 0 0.65 1.15 0.75 7.50 0.75 l7.50 0 0 -2.10 c0 -1.20 0.25 -2.50 0.50 -2.90 0.35 -0.55 0.50 0.10 0.50 2.15 l0 2.85 27.50 0 27.50 0 0 -9.50 0 -9.50 -27.50 0 -27.50 0 0 4.90 c0 3.30 -0.15 4.60 -0.50 4.10 -0.25 -0.40 -0.50 -2.60 -0.50 -4.85 l0 -4.15 -7.50 0 c-6.45 0 -7.50 0.10 -7.50 0.80 0 0.40 -0.25 0.60 -0.55 0.45 -0.30 -0.20 -0.40 -0.60 -0.30 -0.95 0.15 -0.40 -4.80 -0.50 -19.45 -0.40 l-19.70 0.10 0 5.30 c0 3.70 -0.15 5.25 -0.55 5.10 -0.40 -0.15 -0.55 -1.85 -0.50 -5.30 l0.10 -5.10 -27.50 0 -27.55 0 0 2 c0 1.50 0.20 2 0.80 2 0.40 0 0.60 0.25 0.45 0.50 -0.40 0.65 -3.75 0.65 -3.75 0 0 -0.25 0.35 -0.50 0.75 -0.50 0.55 0 0.75 -0.55 0.75 -2 l0 -2 -27.50 0 -27.50 0 0 9.50 0 9.50 27.50 0 27.50 0 0 -2z"/>
  <path d="M230 55 c0 -0.55 0.25 -1 0.50 -1 0.30 0 0.50 0.45 0.50 1 0 0.55 -0.20 1 -0.50 1 -0.25 0 -0.50 -0.45 -0.50 -1z"/>
  <path d="M230.35 50.15 c-0.55 -0.50 -0.40 -3.15 0.15 -3.15 0.25 0 0.45 0.80 0.40 1.75 -0.05 1.90 -0.05 1.90 -0.55 1.40z"/>
  <path d="M230 15.30 c0 -0.40 0.25 -0.90 0.50 -1.05 0.30 -0.15 0.50 0.15 0.50 0.70 0 0.60 -0.20 1.05 -0.50 1.05 -0.25 0 -0.50 -0.30 -0.50 -0.70z"/>
  <path d="M77.40 14.15 c0.60 -0.10 1.60 -0.10 2.25 0 0.60 0.10 0.10 0.20 -1.15 0.20 -1.25 0 -1.75 -0.10 -1.10 -0.20z"/>
  <path d="M133.40 14.15 c0.60 -0.10 1.60 -0.10 2.25 0 0.60 0.10 0.10 0.20 -1.15 0.20 -1.25 0 -1.75 -0.10 -1.10 -0.20z"/>
  <path d="M246.35 10.15 c-0.55 -0.55 -0.40 -10.15 0.15 -10.15 0.30 0 0.50 2.10 0.50 5.25 0 5.25 -0.05 5.55 -0.65 4.90z"/>
  <path d="M190.35 9.65 c-0.50 -0.90 -0.40 -9.65 0.10 -9.65 0.35 0 0.55 1.80 0.55 5 0 4.70 -0.10 5.55 -0.65 4.65z"/>
  <path d="M302 4.50 c0 -2.85 0.20 -4.50 0.55 -4.50 0.35 0 0.45 1.55 0.40 4.50 -0.10 2.50 -0.30 4.50 -0.55 4.50 -0.20 0 -0.40 -2 -0.40 -4.50z"/>
  <path d="M22 2.75 c0 -1.50 0.25 -2.75 0.50 -2.75 0.30 0 0.50 1 0.50 2.25 0 1.80 0.20 2.25 0.90 2.30 0.70 0 0.70 0.10 -0.15 0.45 -1.65 0.70 -1.75 0.60 -1.75 -2.25z"/>
  <path d="M77.25 4.55 c0.80 -0.30 0.95 -0.80 0.80 -2.45 -0.05 -1.35 0.10 -2.10 0.45 -2.10 0.40 0 0.55 0.75 0.40 2.25 -0.10 1.65 0.05 2.30 0.60 2.45 0.40 0.10 -0.15 0.20 -1.25 0.20 -1.45 0 -1.70 -0.10 -1 -0.35z"/>
  <path d="M133.25 4.55 c0.80 -0.30 0.95 -0.80 0.80 -2.45 -0.05 -1.35 0.10 -2.10 0.45 -2.10 0.40 0 0.55 0.75 0.40 2.25 -0.10 1.65 0.05 2.30 0.60 2.45 0.40 0.10 -0.15 0.20 -1.25 0.20 -1.45 0 -1.70 -0.10 -1 -0.35z"/>
 </g>
 <g fill="#6dc8e1">
  <path d="M134.25 55.50 c0.20 -0.35 -7.75 -0.50 -23.45 -0.50 -15.55 0 -23.80 -0.15 -23.80 -0.50 0 -0.35 10.85 -0.50 31.50 -0.50 27.65 0 31.50 -0.10 31.50 -0.75 0 -0.40 0.25 -0.75 0.50 -0.75 0.30 0 0.50 0.55 0.50 1.25 l0 1.25 -8 0 c-5 0 -8 0.20 -8 0.50 0 0.30 -0.25 0.50 -0.55 0.50 -0.25 0 -0.35 -0.20 -0.20 -0.50z"/>
  <path d="M78.25 35.50 c0.20 -0.35 -9.10 -0.50 -27.45 -0.50 -18.20 0 -27.80 -0.15 -27.80 -0.50 0 -0.35 10.85 -0.50 31.50 -0.50 27.65 0 31.50 -0.10 31.50 -0.75 0 -0.40 0.25 -0.75 0.50 -0.75 0.30 0 0.50 0.55 0.50 1.25 0 1.25 -0.05 1.25 -4 1.25 -2.35 0 -4 0.20 -4 0.50 0 0.30 -0.25 0.50 -0.55 0.50 -0.25 0 -0.35 -0.20 -0.20 -0.50z"/>
  <path d="M22 25.75 c0 -1.55 0.15 -1.75 1.25 -1.75 0.70 0 1.25 0.25 1.25 0.50 0 0.30 -0.35 0.50 -0.75 0.50 -0.45 0 -0.75 0.45 -0.75 1.25 0 0.70 -0.20 1.25 -0.50 1.25 -0.25 0 -0.50 -0.80 -0.50 -1.75z"/>
  <path d="M22.50 15.70 c-0.20 -3.70 -0.10 -11.80 0.15 -12.05 0.20 -0.15 0.35 -0.05 0.35 0.25 0 0.45 6.90 0.60 27.50 0.60 25.60 0 27.50 -0.05 28 -0.90 0.55 -0.80 0.55 -0.80 0.30 0.05 -0.25 0.80 1.30 0.85 27.45 0.85 25.85 0 27.75 -0.05 28.25 -0.85 0.55 -0.85 0.55 -0.85 0.30 0 -0.30 0.85 0.20 0.90 7.75 0.80 l8.05 -0.10 0.05 5.20 0.10 5.20 -63.50 -0.15 c-59.35 -0.10 -63.55 -0.05 -64.10 0.75 -0.35 0.45 -0.65 0.65 -0.65 0.35z m127.50 -6.20 l0 -4.50 -63.50 0 -63.50 0 0 4.50 0 4.50 63.50 0 63.50 0 0 -4.50z"/>
 </g>
 <g fill="#9a9d9a">
  <path d="M11.20 59.65 c11.10 -0.15 11.40 -0.20 11.15 -1.15 -0.15 -0.55 -0.05 -0.90 0.20 -0.70 0.25 0.15 0.45 0.60 0.45 1 0 0.60 3.95 0.70 27.80 0.70 27.60 0 27.80 0 27.55 -1 -0.15 -0.55 -0.05 -0.90 0.20 -0.70 0.25 0.15 0.45 0.60 0.45 1 0 0.60 3.95 0.70 27.80 0.70 l27.75 0 -0.30 -1.05 c-0.25 -0.75 -0.20 -0.95 0.20 -0.75 0.30 0.20 0.55 0.70 0.55 1.10 0 0.60 3.95 0.70 27.80 0.70 l27.80 0 -0.30 -1.35 c-0.15 -0.80 -0.05 -1.75 0.20 -2.15 0.40 -0.60 0.50 -0.50 0.45 0.50 -0.25 3.25 -1.95 3 19.70 3 l19.60 0 -0.15 -2.80 c-0.15 -1.95 -0.05 -2.70 0.35 -2.50 0.30 0.20 0.55 1.45 0.55 2.85 l0 2.45 7.80 0 c7.55 0 7.80 -0.05 7.55 -1 -0.15 -0.55 -0.05 -0.90 0.20 -0.70 0.25 0.15 0.45 0.60 0.45 1 0 0.60 3.95 0.70 27.80 0.70 27.60 0 27.80 0 27.55 -1 -0.15 -0.55 -0.05 -0.90 0.20 -0.70 0.25 0.15 0.45 0.55 0.45 0.95 0 0.55 0.95 0.75 3.65 0.90 1.95 0.05 -66.25 0.15 -151.65 0.15 -85.40 0 -150.10 -0.10 -143.80 -0.15z"/>
  <path d="M134.10 56.10 c0.20 -0.75 0.10 -1.10 -0.40 -1.10 -0.40 0 -0.70 -0.20 -0.70 -0.50 0 -0.65 2 -0.65 3 0 0.65 0.40 0.60 0.50 -0.10 0.50 -0.50 0 -0.90 0.30 -0.90 0.70 0 0.40 -0.25 0.90 -0.60 1.10 -0.40 0.25 -0.45 0 -0.30 -0.70z"/>
  <path d="M246.20 55.60 c0.15 -0.95 0.35 -1.80 0.50 -2 0.45 -0.45 0.30 1.55 -0.25 2.65 -0.35 0.80 -0.40 0.65 -0.25 -0.65z"/>
  <path d="M246.30 47.70 c-0.20 -1 -0.25 -1.90 -0.10 -2.05 0.10 -0.15 0.40 0.55 0.60 1.55 0.15 1.05 0.20 1.95 0.05 2.10 -0.10 0.15 -0.40 -0.55 -0.55 -1.60z"/>
  <path d="M230.40 48.70 c-0.25 -0.20 -0.40 -2.25 -0.40 -4.50 0 -2.85 -0.20 -4.20 -0.60 -4.35 -0.35 -0.10 -0.30 -0.15 0.15 -0.10 0.60 0.10 0.70 -0.40 0.55 -2.80 -0.15 -2 -0.05 -2.95 0.35 -2.95 0.35 0 0.55 1 0.55 2.65 l0 2.65 2.15 -0.15 c1.95 -0.10 1.75 0.05 -1 0.60 -1.05 0.25 -1.10 0.55 -1.25 4.80 -0.10 2.50 -0.30 4.35 -0.50 4.15z"/>
  <path d="M190 47.25 c0 -0.70 0.20 -1.25 0.45 -1.25 0.20 0 0.30 0.55 0.15 1.25 -0.10 0.70 -0.30 1.25 -0.40 1.25 -0.10 0 -0.20 -0.55 -0.20 -1.25z"/>
  <path d="M22.10 41 l0.05 -1.80 2.55 -0.05 2.55 -0.05 -2.10 0.45 c-1.60 0.40 -2.20 0.80 -2.55 1.85 -0.50 1.30 -0.50 1.30 -0.50 -0.40z"/>
  <path d="M78.10 41 l0.05 -1.80 2.55 -0.05 2.55 -0.05 -2.10 0.45 c-1.60 0.40 -2.20 0.80 -2.55 1.85 -0.50 1.30 -0.50 1.30 -0.50 -0.40z"/>
  <path d="M134.10 41 l0.05 -1.80 2.55 -0.05 2.55 -0.05 -2.10 0.45 c-1.60 0.40 -2.20 0.80 -2.55 1.85 -0.50 1.30 -0.50 1.30 -0.50 -0.40z"/>
  <path d="M190.10 41 l0.05 -1.80 2.55 -0.05 2.55 -0.05 -2.10 0.45 c-1.60 0.40 -2.20 0.80 -2.55 1.85 -0.50 1.30 -0.50 1.30 -0.50 -0.40z"/>
  <path d="M246.10 41 l0.05 -1.80 2.55 -0.05 2.55 -0.05 -2.10 0.45 c-1.60 0.40 -2.20 0.80 -2.55 1.85 -0.50 1.30 -0.50 1.30 -0.50 -0.40z"/>
  <path d="M302.10 41 l0.05 -1.80 2.55 -0.05 2.55 -0.05 -2.10 0.45 c-1.60 0.40 -2.20 0.80 -2.55 1.85 -0.50 1.30 -0.50 1.30 -0.50 -0.40z"/>
  <path d="M78.10 36.75 c0.15 -1.20 0 -1.75 -0.45 -1.75 -0.35 0 -0.65 -0.20 -0.65 -0.50 0 -0.65 2 -0.65 3 0 0.65 0.40 0.65 0.50 -0.05 0.50 -0.85 0 -1.70 2.20 -1.20 3 0.20 0.30 0.05 0.50 -0.30 0.50 -0.35 0 -0.50 -0.65 -0.35 -1.75z"/>
  <path d="M134 37 c0 -0.80 0.20 -1.50 0.45 -1.50 0.20 0 0.40 0.65 0.35 1.50 -0.05 1.95 -0.80 1.95 -0.80 0z"/>
  <path d="M190.10 36.30 c0.10 -1.20 0.30 -2.10 0.50 -2 0.50 0.30 0.25 4.20 -0.25 4.20 -0.20 0 -0.30 -1 -0.25 -2.20z"/>
  <path d="M246 37.40 c0 -0.65 0.20 -1.50 0.50 -1.90 0.30 -0.50 0.40 -0.15 0.35 1.15 -0.10 1.95 -0.85 2.60 -0.85 0.75z"/>
  <path d="M190.60 28.40 c-0.05 -1 -0.25 -2.25 -0.40 -2.75 -0.25 -0.85 -0.25 -0.85 0.30 0 0.30 0.45 0.45 1.70 0.35 2.75 l-0.20 1.85 -0.05 -1.85z"/>
  <path d="M230 23.55 c0 -2.35 -0.20 -3.55 -0.60 -3.70 -0.35 -0.10 -0.30 -0.15 0.15 -0.10 0.65 0.10 0.75 -0.35 0.55 -2.55 -0.15 -1.80 -0.05 -2.70 0.35 -2.70 0.35 0 0.55 0.95 0.55 2.40 l0 2.40 2.15 -0.15 c1.95 -0.10 1.75 0.05 -1 0.65 -1.05 0.20 -1.15 0.50 -1.15 3.70 0 2 -0.20 3.50 -0.50 3.50 -0.30 0 -0.50 -1.50 -0.50 -3.45z"/>
  <path d="M22.10 21 l0.05 -1.80 2.55 -0.05 2.55 -0.05 -2.10 0.45 c-1.60 0.40 -2.20 0.80 -2.55 1.85 -0.50 1.30 -0.50 1.30 -0.50 -0.40z"/>
  <path d="M78.10 21 l0.05 -1.80 2.55 -0.05 2.55 -0.05 -2.10 0.45 c-1.60 0.40 -2.20 0.80 -2.55 1.85 -0.50 1.30 -0.50 1.30 -0.50 -0.40z"/>
  <path d="M134.10 21 l0.05 -1.80 2.55 -0.05 2.55 -0.05 -2.10 0.45 c-1.60 0.40 -2.20 0.80 -2.55 1.85 -0.50 1.30 -0.50 1.30 -0.50 -0.40z"/>
  <path d="M190.10 21 l0.05 -1.80 2.55 -0.05 2.55 -0.05 -2.10 0.45 c-1.60 0.40 -2.20 0.80 -2.55 1.85 -0.50 1.30 -0.50 1.30 -0.50 -0.40z"/>
  <path d="M246.10 21 l0.05 -1.80 2.55 -0.05 2.55 -0.05 -2.10 0.45 c-1.60 0.40 -2.20 0.80 -2.55 1.85 -0.50 1.30 -0.50 1.30 -0.50 -0.40z"/>
  <path d="M302.15 20.15 c0 -1.40 0.20 -2.50 0.45 -2.35 0.20 0.15 0.40 0.55 0.40 0.95 0 0.45 0.60 0.60 2.15 0.45 l2.10 -0.20 -2.10 0.55 c-1.60 0.35 -2.20 0.80 -2.55 1.85 -0.40 1.15 -0.50 1 -0.45 -1.25z"/>
  <path d="M22.10 16.25 c0.10 -1.30 0.35 -2.20 0.65 -2.05 0.25 0.10 0.40 0.50 0.30 0.85 -0.10 0.40 -0.20 1.30 -0.25 2.10 -0.05 0.75 -0.20 1.35 -0.40 1.35 -0.20 0 -0.35 -1 -0.30 -2.25z"/>
  <path d="M78 17.30 c0 -0.70 0.20 -1.35 0.45 -1.50 0.20 -0.15 0.40 0.40 0.35 1.20 -0.05 1.80 -0.80 2.05 -0.80 0.30z"/>
  <path d="M134 17.30 c0 -0.70 0.20 -1.35 0.45 -1.50 0.20 -0.15 0.40 0.40 0.35 1.20 -0.05 1.80 -0.80 2.05 -0.80 0.30z"/>
  <path d="M190.20 15.65 c0.40 -3.80 0.75 -3.95 0.65 -0.20 -0.05 1.65 -0.30 3.05 -0.50 3.05 -0.20 0 -0.25 -1.25 -0.15 -2.85z"/>
  <path d="M246.10 16.30 c0.10 -1.20 0.30 -2.10 0.50 -2 0.50 0.30 0.25 4.20 -0.25 4.20 -0.20 0 -0.30 -1 -0.25 -2.20z"/>
  <path d="M246.45 10.15 c-0.30 -2.35 -0.40 -4.75 -0.15 -4.50 0.35 0.35 0.75 4.85 0.40 4.85 -0.10 0 -0.20 -0.15 -0.25 -0.35z"/>
  <path d="M230 5 c0 -3 0.20 -5 0.50 -5 0.30 0 0.50 2 0.50 5 0 3 -0.20 5 -0.50 5 -0.30 0 -0.50 -2 -0.50 -5z"/>
  <path d="M22 4.80 c0 -0.40 0.25 -0.90 0.50 -1.05 0.30 -0.15 0.50 0.05 0.50 0.45 0 0.40 -0.20 0.90 -0.50 1.05 -0.25 0.15 -0.50 -0.05 -0.50 -0.45z"/>
  <path d="M78.15 2.95 c-0.05 -1.15 0 -1.95 0.15 -1.80 0.45 0.45 0.65 3.85 0.25 3.85 -0.20 0 -0.35 -0.95 -0.40 -2.05z"/>
  <path d="M134.15 2.95 c-0.05 -1.15 0 -1.95 0.15 -1.80 0.45 0.45 0.65 3.85 0.25 3.85 -0.20 0 -0.35 -0.95 -0.40 -2.05z"/>
 </g>
 <g fill="#81d5f4">
  <path d="M86 53.25 c0 -0.95 0.25 -1.75 0.50 -1.75 0.30 0 0.50 0.55 0.50 1.20 0 0.85 0.40 1.30 1.65 1.70 l1.60 0.50 -2.10 0.05 c-2.15 0.05 -2.15 0.05 -2.15 -1.70z"/>
  <path d="M132.85 54.40 c1.05 -0.35 2 -0.35 3 0 1.25 0.45 1.05 0.50 -1.60 0.50 -2.75 0 -2.85 -0.05 -1.40 -0.50z"/>
  <path d="M149.15 54.45 c0.70 -0.40 0.85 -1.25 0.85 -4.95 l0 -4.50 -31.50 0 -31.50 0 0 1.50 c0 0.85 -0.20 1.50 -0.50 1.50 -0.25 0 -0.50 -0.90 -0.50 -2 l0 -2 24.30 0 c22.95 0 24.30 -0.05 24 -0.85 -0.30 -0.85 -0.25 -0.85 0.40 0 0.60 0.75 1.65 0.85 8.50 0.85 l7.80 0 0 5.50 0 5.50 -1.35 0 c-1.20 -0.05 -1.25 -0.10 -0.50 -0.55z"/>
  <path d="M22 33.25 c0 -0.95 0.25 -1.75 0.50 -1.75 0.30 0 0.50 0.55 0.50 1.20 0 0.85 0.40 1.30 1.65 1.70 l1.60 0.50 -2.10 0.05 c-2.15 0.05 -2.15 0.05 -2.15 -1.70z"/>
  <path d="M76.85 34.40 c1.05 -0.35 2 -0.35 3 0 1.25 0.45 1.05 0.50 -1.60 0.50 -2.75 0 -2.85 -0.05 -1.40 -0.50z"/>
  <path d="M85.15 34.45 c0.70 -0.40 0.85 -1.25 0.85 -5 l0 -4.45 -31.60 0.10 -31.65 0.15 0.15 1.40 c0.10 0.75 -0.05 1.35 -0.35 1.35 -0.30 0 -0.55 -0.90 -0.55 -2 0 -1.10 0.15 -1.95 0.40 -1.95 0.20 0.05 12.90 0.05 28.30 0 26.35 -0.05 27.90 -0.10 27.60 -0.90 -0.30 -0.85 -0.25 -0.85 0.40 0 0.50 0.65 1.45 0.85 4.50 0.85 l3.80 0 0 5.50 0 5.50 -1.35 0 c-1.20 -0.05 -1.25 -0.10 -0.50 -0.55z"/>
 </g>
 <g fill="#aba6a8">
  <path d="M22.30 58.25 c-0.15 -0.45 -0.30 -1.30 -0.25 -1.90 0.05 -0.70 0.20 -0.45 0.45 0.65 0.45 1.85 0.35 2.60 -0.20 1.25z"/>
  <path d="M78.30 58.25 c-0.15 -0.45 -0.30 -1.30 -0.25 -1.90 0.05 -0.70 0.20 -0.45 0.45 0.65 0.45 1.85 0.35 2.60 -0.20 1.25z"/>
  <path d="M190.30 58.20 c-0.40 -1.05 -0.40 -1.70 0.10 -1.70 0.20 0 0.40 0.55 0.40 1.25 0.10 1.45 -0.05 1.60 -0.50 0.45z"/>
  <path d="M246.30 58.25 c-0.15 -0.45 -0.30 -1.30 -0.25 -1.90 0.05 -0.70 0.20 -0.45 0.45 0.65 0.45 1.85 0.35 2.60 -0.20 1.25z"/>
  <path d="M302.30 58.25 c-0.15 -0.45 -0.30 -1.30 -0.25 -1.90 0.05 -0.70 0.20 -0.45 0.45 0.65 0.45 1.85 0.35 2.60 -0.20 1.25z"/>
  <path d="M133.05 54.45 c0.90 -0.55 2.30 -0.60 2.65 -0.05 0.10 0.20 -0.55 0.40 -1.55 0.45 -1.20 0 -1.55 -0.10 -1.10 -0.40z"/>
  <path d="M190 45.90 c0 -1.05 0.10 -1.90 0.20 -1.90 0.45 0 0.60 2.50 0.25 3.10 -0.30 0.40 -0.45 -0.05 -0.45 -1.20z"/>
  <path d="M134.15 42.65 c-0.05 -2.45 0.05 -2.45 0.55 0 0.20 0.80 0.65 1.35 1.20 1.40 0.70 0 0.70 0.10 -0.15 0.45 -0.55 0.25 -1.10 0.45 -1.25 0.45 -0.15 0.05 -0.30 -1 -0.35 -2.30z"/>
  <path d="M229.90 40.90 c-0.15 -0.90 0 -1.20 0.65 -1.20 0.70 0 0.80 0.20 0.35 1.05 -0.75 1.40 -0.75 1.40 -1 0.15z"/>
  <path d="M4.90 39.15 c2.80 -0.10 7.40 -0.10 10.25 0 2.80 0.05 0.50 0.15 -5.15 0.15 -5.65 0 -7.95 -0.10 -5.10 -0.15z"/>
  <path d="M38.15 39.15 c7.10 -0.10 18.60 -0.10 25.50 0 6.95 0.05 1.15 0.10 -12.90 0.10 -14 0 -19.70 -0.05 -12.60 -0.10z"/>
  <path d="M94.15 39.15 c7.10 -0.10 18.60 -0.10 25.50 0 6.95 0.05 1.15 0.10 -12.90 0.10 -14 0 -19.70 -0.05 -12.60 -0.10z"/>
  <path d="M150.15 39.15 c7.10 -0.10 18.60 -0.10 25.50 0 6.95 0.05 1.15 0.10 -12.90 0.10 -14 0 -19.70 -0.05 -12.60 -0.10z"/>
  <path d="M201.85 39.15 c4.70 -0.10 12.60 -0.10 17.50 0 4.90 0.05 1.05 0.10 -8.60 0.10 -9.60 0.05 -13.65 -0.05 -8.90 -0.10z"/>
  <path d="M236.15 39.15 c1.60 -0.10 4.05 -0.10 5.50 0 1.45 0.10 0.15 0.15 -2.90 0.15 -3 0 -4.20 -0.05 -2.60 -0.15z"/>
  <path d="M262.15 39.15 c7.10 -0.10 18.60 -0.10 25.50 0 6.95 0.05 1.15 0.10 -12.90 0.10 -14 0 -19.70 -0.05 -12.60 -0.10z"/>
  <path d="M306.65 39.15 c0.75 -0.10 1.85 -0.10 2.50 0 0.60 0.10 0 0.20 -1.40 0.20 -1.35 0 -1.90 -0.10 -1.10 -0.20z"/>
  <path d="M22 37 c0 -0.80 0.10 -1.50 0.20 -1.50 0.10 0 0.30 0.70 0.40 1.50 0.15 0.85 0.05 1.50 -0.20 1.50 -0.20 0 -0.40 -0.65 -0.40 -1.50z"/>
  <path d="M78 37 c0 -0.80 0.10 -1.50 0.20 -1.50 0.10 0 0.30 0.70 0.40 1.50 0.15 0.85 0.05 1.50 -0.20 1.50 -0.20 0 -0.40 -0.65 -0.40 -1.50z"/>
  <path d="M134 37 c0 -0.80 0.10 -1.50 0.20 -1.50 0.10 0 0.30 0.70 0.40 1.50 0.15 0.85 0.05 1.50 -0.20 1.50 -0.20 0 -0.40 -0.65 -0.40 -1.50z"/>
  <path d="M190 37.25 c0 -0.70 0.10 -1.25 0.20 -1.25 0.10 0 0.30 0.55 0.40 1.25 0.15 0.70 0.05 1.25 -0.15 1.25 -0.25 0 -0.45 -0.55 -0.45 -1.25z"/>
  <path d="M246 37.30 c0 -0.70 0.15 -1.35 0.40 -1.45 0.20 -0.15 0.35 0.40 0.35 1.20 0 0.80 -0.15 1.45 -0.35 1.45 -0.25 0 -0.40 -0.55 -0.40 -1.20z"/>
  <path d="M302 37 c0 -0.80 0.10 -1.50 0.20 -1.50 0.10 0 0.30 0.70 0.40 1.50 0.15 0.85 0.05 1.50 -0.20 1.50 -0.20 0 -0.40 -0.65 -0.40 -1.50z"/>
  <path d="M77.05 34.45 c0.90 -0.55 2.30 -0.60 2.65 -0.05 0.10 0.20 -0.55 0.40 -1.55 0.45 -1.20 0 -1.55 -0.10 -1.10 -0.40z"/>
  <path d="M134.20 27.30 c-0.15 -0.40 -0.20 -1.15 -0.10 -1.65 0.15 -0.55 0.30 -0.30 0.45 0.75 0.30 1.70 0.10 2.10 -0.35 0.90z"/>
  <path d="M78.15 22.65 c-0.05 -2.45 0.05 -2.45 0.55 0 0.20 0.80 0.65 1.35 1.20 1.40 0.70 0 0.70 0.10 -0.15 0.45 -0.55 0.25 -1.10 0.45 -1.25 0.45 -0.15 0.05 -0.30 -1 -0.35 -2.30z"/>
  <path d="M22 22 c0 -0.80 0.10 -1.50 0.20 -1.50 0.10 0 0.30 0.70 0.40 1.50 0.15 0.85 0.05 1.50 -0.20 1.50 -0.20 0 -0.40 -0.65 -0.40 -1.50z"/>
  <path d="M229.90 20.90 c-0.15 -0.90 0 -1.20 0.65 -1.20 0.70 0 0.80 0.20 0.35 1.05 -0.75 1.40 -0.75 1.40 -1 0.15z"/>
  <path d="M302.20 18.65 c-0.10 -1.30 0.55 -1.15 0.90 0.25 0.15 0.50 0 0.95 -0.30 0.95 -0.30 0 -0.60 -0.55 -0.60 -1.20z"/>
  <path d="M4.90 19.15 c2.80 -0.10 7.40 -0.10 10.25 0 2.80 0.05 0.50 0.15 -5.15 0.15 -5.65 0 -7.95 -0.10 -5.10 -0.15z"/>
  <path d="M38.15 19.15 c7.10 -0.10 18.60 -0.10 25.50 0 6.95 0.05 1.15 0.10 -12.90 0.10 -14 0 -19.70 -0.05 -12.60 -0.10z"/>
  <path d="M94.15 19.15 c7.10 -0.10 18.60 -0.10 25.50 0 6.95 0.05 1.15 0.10 -12.90 0.10 -14 0 -19.70 -0.05 -12.60 -0.10z"/>
  <path d="M150.15 19.15 c7.10 -0.10 18.60 -0.10 25.50 0 6.95 0.05 1.15 0.10 -12.90 0.10 -14 0 -19.70 -0.05 -12.60 -0.10z"/>
  <path d="M201.85 19.15 c4.70 -0.10 12.60 -0.10 17.50 0 4.90 0.05 1.05 0.10 -8.60 0.10 -9.60 0.05 -13.65 -0.05 -8.90 -0.10z"/>
  <path d="M236.15 19.15 c1.60 -0.10 4.05 -0.10 5.50 0 1.45 0.10 0.15 0.15 -2.90 0.15 -3 0 -4.20 -0.05 -2.60 -0.15z"/>
  <path d="M262.15 19.15 c7.10 -0.10 18.60 -0.10 25.50 0 6.95 0.05 1.15 0.10 -12.90 0.10 -14 0 -19.70 -0.05 -12.60 -0.10z"/>
  <path d="M306.65 19.15 c0.75 -0.10 1.85 -0.10 2.50 0 0.60 0.10 0 0.20 -1.40 0.20 -1.35 0 -1.90 -0.10 -1.10 -0.20z"/>
  <path d="M22 17.15 c0 -0.70 0.15 -1.15 0.35 -0.95 0.50 0.50 0.55 2.30 0.05 2.30 -0.20 0 -0.40 -0.60 -0.40 -1.35z"/>
  <path d="M78 17.25 c0 -0.70 0.10 -1.25 0.20 -1.25 0.10 0 0.30 0.55 0.40 1.25 0.15 0.70 0.05 1.25 -0.15 1.25 -0.25 0 -0.45 -0.55 -0.45 -1.25z"/>
  <path d="M134 17.25 c0 -0.70 0.10 -1.25 0.20 -1.25 0.10 0 0.30 0.55 0.40 1.25 0.15 0.70 0.05 1.25 -0.15 1.25 -0.25 0 -0.45 -0.55 -0.45 -1.25z"/>
  <path d="M190 17.25 c0 -0.70 0.10 -1.25 0.20 -1.25 0.10 0 0.30 0.55 0.40 1.25 0.15 0.70 0.05 1.25 -0.15 1.25 -0.25 0 -0.45 -0.55 -0.45 -1.25z"/>
  <path d="M246 17.25 c0 -0.70 0.10 -1.25 0.20 -1.25 0.10 0 0.30 0.55 0.40 1.25 0.15 0.70 0.05 1.25 -0.15 1.25 -0.25 0 -0.45 -0.55 -0.45 -1.25z"/>
  <path d="M230 8.75 c0.05 -1.30 0.10 -1.40 0.55 -0.60 0.40 0.70 0.40 1.10 0 1.50 -0.40 0.40 -0.55 0.15 -0.55 -0.90z"/>
  <path d="M190.35 7.65 c-0.20 -0.15 -0.35 -0.80 -0.30 -1.35 0 -0.95 0.05 -0.95 0.50 0.15 0.50 1.20 0.40 1.80 -0.20 1.20z"/>
 </g>
 <g fill="#a0a1a6">
  <path d="M22.20 49 c0 -4.55 0.10 -6.40 0.15 -4.10 0.10 2.25 0.10 5.95 0 8.25 -0.05 2.25 -0.15 0.40 -0.15 -4.15z"/>
  <path d="M78.20 49 c0 -4.55 0.10 -6.40 0.15 -4.10 0.10 2.25 0.10 5.95 0 8.25 -0.05 2.25 -0.15 0.40 -0.15 -4.15z"/>
  <path d="M302.20 49 c0 -4.55 0.10 -6.40 0.15 -4.10 0.10 2.25 0.10 5.95 0 8.25 -0.05 2.25 -0.15 0.40 -0.15 -4.15z"/>
  <path d="M230.35 48.70 c-0.20 -0.20 -0.35 -0.85 -0.35 -1.40 0.05 -0.95 0.05 -1 0.55 -0.15 0.55 0.95 0.40 2.15 -0.20 1.55z"/>
  <path d="M246.15 44 c0 -1.80 0.10 -2.50 0.20 -1.60 0.10 0.85 0.10 2.35 0 3.25 -0.10 0.85 -0.20 0.15 -0.20 -1.65z"/>
  <path d="M190.15 43.25 c0 -1.35 0.10 -1.90 0.20 -1.10 0.10 0.75 0.10 1.85 0 2.50 -0.10 0.60 -0.20 0 -0.20 -1.40z"/>
  <path d="M134 44.60 c0 -0.80 0.65 -1 1.75 -0.55 0.55 0.20 0.75 0.40 0.40 0.40 -0.30 0.05 -0.90 0.20 -1.35 0.35 -0.45 0.15 -0.80 0.05 -0.80 -0.20z"/>
  <path d="M230 42.10 c0 -0.85 0.20 -1.70 0.50 -1.85 0.30 -0.20 0.35 0.30 0.15 1.35 -0.40 2.20 -0.65 2.40 -0.65 0.50z"/>
  <path d="M302.20 29 c0 -4.55 0.10 -6.40 0.15 -4.10 0.10 2.25 0.10 5.95 0 8.25 -0.05 2.25 -0.15 0.40 -0.15 -4.15z"/>
  <path d="M134.15 23.75 c0 -1.65 0.10 -2.25 0.20 -1.35 0.10 0.90 0.10 2.25 0 3 -0.10 0.75 -0.20 0 -0.20 -1.65z"/>
  <path d="M190.20 25.80 c-0.15 -0.35 -0.20 -1.65 -0.10 -2.85 0.15 -2.15 0.20 -2.10 0.40 0.70 0.25 2.90 0.20 3.40 -0.30 2.15z"/>
  <path d="M246.15 23.50 c0 -1.50 0.10 -2.15 0.20 -1.35 0.10 0.75 0.10 1.95 0 2.75 -0.10 0.75 -0.20 0.10 -0.20 -1.40z"/>
  <path d="M78 24.60 c0 -0.80 0.65 -1 1.75 -0.55 0.55 0.20 0.75 0.40 0.40 0.40 -0.30 0.05 -0.90 0.20 -1.35 0.35 -0.45 0.15 -0.80 0.05 -0.80 -0.20z"/>
  <path d="M230 22.10 c0 -0.85 0.20 -1.70 0.50 -1.85 0.30 -0.20 0.35 0.30 0.15 1.35 -0.40 2.20 -0.65 2.40 -0.65 0.50z"/>
  <path d="M22.25 14.95 c-0.50 -0.75 0.15 -1.25 0.80 -0.60 0.35 0.35 0.35 0.65 0.05 0.85 -0.30 0.15 -0.70 0.05 -0.85 -0.25z"/>
  <path d="M230.15 8.35 c-0.10 -1.50 -0.10 -1.55 0.40 -0.40 0.25 0.70 0.30 1.40 0.05 1.65 -0.20 0.20 -0.45 -0.35 -0.45 -1.25z"/>
  <path d="M190.30 7.25 c-0.15 -0.45 -0.25 -2.35 -0.20 -4.15 l0.05 -3.35 0.35 4 c0.30 4.30 0.30 4.75 -0.20 3.50z"/>
  <path d="M302.15 4 c0 -2.35 0.10 -3.30 0.20 -2.10 0.10 1.15 0.10 3.05 0 4.25 -0.10 1.15 -0.20 0.20 -0.20 -2.15z"/>
  <path d="M246.15 3.75 c0 -2.20 0.10 -3.05 0.20 -1.85 0.10 1.15 0.10 2.95 0 4 -0.10 1 -0.20 0.05 -0.20 -2.15z"/>
  <path d="M22.10 1.50 c0 -0.95 0.10 -1.35 0.25 -0.85 0.10 0.45 0.10 1.25 0 1.75 -0.15 0.45 -0.25 0.05 -0.25 -0.90z"/>
 </g>
 <g fill="#b9f3ff">
  <path d="M87.50 54.65 c0 -0.25 13.65 -0.35 30.40 -0.25 16.70 0.05 30.80 0 31.40 -0.15 0.85 -0.20 0.95 -0.50 0.80 -2.10 -0.10 -1.05 -0.05 -1.75 0.10 -1.60 0.20 0.20 0.40 1.25 0.50 2.35 l0.15 2.05 -31.65 0.05 c-17.45 0 -31.70 -0.15 -31.70 -0.35z"/>
  <path d="M86 49.75 c0 -1.85 0.20 -3.25 0.50 -3.25 0.30 0 0.50 1.40 0.50 3.25 0 1.85 -0.20 3.25 -0.50 3.25 -0.30 0 -0.50 -1.40 -0.50 -3.25z"/>
  <path d="M86.15 45.05 c0.05 -0.55 0.30 -0.85 0.70 -0.70 0.50 0.20 0.55 0.45 0.10 0.95 -0.75 0.95 -0.90 0.90 -0.80 -0.25z"/>
  <path d="M150 45.30 c0 -1.15 0.80 -1.35 0.85 -0.25 0.05 0.50 -0.10 0.95 -0.40 0.95 -0.25 0 -0.45 -0.30 -0.45 -0.70z"/>
  <path d="M23.55 34.80 c0.15 -0.15 14.05 -0.30 30.90 -0.30 16.85 -0.05 30.90 -0.15 31.25 -0.30 0.35 -0.15 0.50 -0.90 0.40 -2.10 -0.15 -1 -0.05 -1.70 0.10 -1.55 0.20 0.20 0.40 1.25 0.50 2.35 l0.15 2.05 -31.75 0.05 c-17.50 0 -31.70 -0.10 -31.55 -0.20z"/>
  <path d="M22 29.75 c0 -1.85 0.20 -3.25 0.50 -3.25 0.30 0 0.50 1.40 0.50 3.25 0 1.85 -0.20 3.25 -0.50 3.25 -0.30 0 -0.50 -1.40 -0.50 -3.25z"/>
  <path d="M22 25 c0 -0.95 0.15 -1.05 0.60 -0.60 0.45 0.45 0.45 0.75 0 1.20 -0.45 0.45 -0.60 0.35 -0.60 -0.60z"/>
  <path d="M86 25.30 c0 -1.15 0.80 -1.35 0.85 -0.25 0.05 0.50 -0.10 0.95 -0.40 0.95 -0.25 0 -0.45 -0.30 -0.45 -0.70z"/>
 </g>
 <g fill="#80daee">
  <path d="M150.10 49.05 c-0.05 -2.60 0.10 -4.55 0.30 -4.25 0.20 0.25 0.25 2.35 0.10 4.70 l-0.35 4.25 -0.05 -4.70z"/>
  <path d="M134 44.50 c0 -0.25 0.60 -0.50 1.40 -0.45 1.20 0 1.25 0.05 0.35 0.45 -1.35 0.60 -1.75 0.60 -1.75 0z"/>
  <path d="M86.10 29.05 c-0.05 -2.60 0.10 -4.55 0.30 -4.25 0.20 0.25 0.25 2.35 0.10 4.70 l-0.35 4.25 -0.05 -4.70z"/>
  <path d="M78 24.50 c0 -0.25 0.60 -0.50 1.40 -0.45 1.20 0 1.25 0.05 0.35 0.45 -1.35 0.60 -1.75 0.60 -1.75 0z"/>
 </g>
 <g fill="#76cdf6">
  <path d="M86.65 49.75 c0 -1.90 0.10 -2.65 0.20 -1.60 0.10 1 0.10 2.60 0 3.50 -0.10 0.85 -0.20 0.05 -0.20 -1.90z"/>
  <path d="M22.65 29.75 c0 -1.90 0.10 -2.65 0.20 -1.60 0.10 1 0.10 2.60 0 3.50 -0.10 0.85 -0.20 0.05 -0.20 -1.90z"/>
 </g>
 <g fill="#7a7a7f">
  <path d="M230.35 58.65 c-0.20 -0.15 -0.35 -0.90 -0.30 -1.60 0.05 -1.30 0.05 -1.25 0.50 0.15 0.45 1.55 0.35 2.05 -0.20 1.45z"/>
  <path d="M230.30 48.25 c-0.15 -0.45 -0.25 -2.10 -0.25 -3.65 l0.10 -2.85 0.35 3.50 c0.40 3.65 0.35 4.35 -0.20 3z"/>
  <path d="M230.35 38.65 c-0.50 -0.45 -0.45 -3.15 0.05 -3.15 0.20 0 0.40 0.80 0.40 1.75 0 1.90 0 1.90 -0.45 1.40z"/>
  <path d="M230.15 24 c0 -1.25 0.10 -1.75 0.20 -1.10 0.10 0.60 0.10 1.60 0 2.25 -0.10 0.60 -0.20 0.10 -0.20 -1.15z"/>
  <path d="M230.35 18.65 c-0.20 -0.15 -0.35 -1 -0.30 -1.85 l0.05 -1.55 0.40 1.75 c0.45 1.80 0.40 2.25 -0.15 1.65z"/>
  <path d="M230.15 4.90 l0 -5.15 0.30 4.75 c0.20 2.60 0.20 4.90 0.05 5.15 -0.20 0.20 -0.35 -1.95 -0.35 -4.75z"/>
 </g>
</svg>